<svg id="Layer_1" data-name="Layer 1" xmlns="http://www.w3.org/2000/svg" viewBox="0 0 1440 1080"><defs><style>.cls-1{fill:#2151a2;}.cls-2{fill:#fff;stroke:#2151a2;stroke-miterlimit:10;stroke-width:2px;}.cls-3{fill:none;stroke:#fff;stroke-miterlimit:22.93;stroke-width:0.91px;}.cls-4{fill:#2551a3;}.cls-4,.cls-5{fill-rule:evenodd;}.cls-5{fill:#ed1846;}</style></defs><title>slide_svgs</title><path class="cls-1" d="M986.79,218.41v28.87h-3.46V218.41Z"/><path class="cls-1" d="M1019,218.41v3.3h-10.15v25.57h-3.46V221.71H995.28v-3.3Z"/><path class="cls-1" d="M1057.3,218.41v28.87h-3.47V225l-10.35,15.5h-2.14L1031,225v22.31h-3.47V218.41h3l11.92,17.82,11.92-17.82Z"/><path class="cls-1" d="M1082.16,217.92c10.1,0,15.09,7.46,15.09,14.93s-5,14.92-15.09,14.92-15.1-7.46-15.1-14.92S1072.05,217.92,1082.16,217.92Zm0,3.3c-7.84,0-11.59,5.69-11.59,11.63s3.75,11.62,11.59,11.62,11.58-5.69,11.58-11.62S1090,221.22,1082.16,221.22Z"/><path class="cls-1" d="M1145.19,218.41v18.31c0,8.25-5.64,11.05-12,11.05s-12.08-2.8-12.08-11.05V218.41h3.47v18.15c0,5.85,3.62,7.91,8.61,7.91s8.58-2.06,8.58-7.91V218.41Z"/><path class="cls-1" d="M1156.57,247.28V218.41h3.22l17.36,23.05V218.41h3.46v28.87h-3.22L1160,224.19v23.09Z"/><path class="cls-1" d="M1195.78,218.41v28.87h-3.46V218.41Z"/><path class="cls-1" d="M1216.11,247.28l-12-28.87h3.71l10,25,10.06-25h3.71l-12,28.87Z"/><path class="cls-1" d="M1259.48,218.41v3.3h-16v9.36h14.76v3.3h-14.76V244h16.25v3.3H1240V218.41Z"/><path class="cls-1" d="M1269.7,247.28V218.41H1281c5.2,0,10.81,2.15,10.81,8.75,0,5.31-3.63,7.71-7.72,8.45l9.78,11.67h-4.33l-9.45-11.38h-6.92v11.38Zm3.47-14.68h8c3.46,0,7.13-1.16,7.13-5.44s-3.67-5.45-7.13-5.45h-8Z"/><path class="cls-1" d="M1310.65,217.92a18.39,18.39,0,0,1,8.74,2.1v3.47a16,16,0,0,0-8.5-2.27c-3.79,0-6.63,1.11-6.63,4.2,0,7.3,17.19,4.17,17.19,14.52,0,5.73-5.15,7.87-10.68,7.83a20.23,20.23,0,0,1-9.9-2.47v-3.46a18.38,18.38,0,0,0,9.65,2.63c4,0,7.42-1,7.42-4.28,0-7.76-17.19-4.5-17.19-14.64C1300.75,220.39,1305.41,217.92,1310.65,217.92Z"/><path class="cls-1" d="M1334.19,218.41v28.87h-3.47V218.41Z"/><path class="cls-1" d="M1366.43,218.41v3.3h-10.14v25.57h-3.47V221.71h-10.14v-3.3Z"/><path class="cls-1" d="M1382.92,247.28V236.35l-11.34-17.94h3.83l9.24,14.85,9.24-14.85h3.83l-11.34,17.94v10.93Z"/><path class="cls-1" d="M1129.24,102.65V120h-27.56V192.4h-19.11V120H1055V102.65Z"/><path class="cls-2" d="M1208.17,102.65v72.44h44V192.4h-63.21V102.65Z"/><path class="cls-2" d="M1320.74,180.61a10.42,10.42,0,0,0,3.33-.52v11.67a30.18,30.18,0,0,1-9.87,1.79c-6.28,0-11-2.3-13.59-6.92a34.38,34.38,0,0,1-22.18,7.56c-11.54,0-21.54-6.66-21.54-18.84,0-15.64,14.74-20.52,27-20.52a67.55,67.55,0,0,1,14.62,1.67v-2.18c0-6.15-4.87-10.38-14.49-10.38a59,59,0,0,0-21.8,4.61V133.17a80.2,80.2,0,0,1,23.85-4.11c18.46,0,30.26,7.57,30.26,27.83V176.5C1316.38,179.71,1318.43,180.61,1320.74,180.61Zm-45.65-6.67c0,4.61,4.23,7.56,9.62,7.56a20.33,20.33,0,0,0,13.85-5v-9.61a48.72,48.72,0,0,0-10.52-1.41C1281.51,165.48,1275.09,167.66,1275.09,173.94Z"/><path class="cls-2" d="M1350.36,102.65V137.4c3.84-4.36,10.51-8.34,20.25-8.34,19.49,0,30,15.77,30,32.57s-10.51,32.56-30,32.56c-11.41,0-18.46-5.25-22.31-10.76v9h-15.76V102.65Zm15.89,41.42a17.55,17.55,0,0,0-16,10.25v14.62a17.55,17.55,0,0,0,16,10.25c10.13,0,16.16-7.95,16.16-17.56S1376.38,144.07,1366.25,144.07Z"/><path class="cls-1" d="M1034.22,102.63h12.93v17.43h-22.83q-12.33,0-18.92,5.42a22.11,22.11,0,0,0-3.46,2.83,22.56,22.56,0,0,0-3.08,3.9,28.35,28.35,0,0,0-4.79,15.56q0,7.9,5.54,16.13,4.41,6.53,14.25,9.83a35,35,0,0,0,10.46,1.19h22.83v17l-2,.38h-19a80.7,80.7,0,0,1-13.57-1,38.23,38.23,0,0,1-9.59-2.8,49.33,49.33,0,0,1-14-9.43,44.44,44.44,0,0,1-13-31.48,45.68,45.68,0,0,1,2.47-15.13,42.46,42.46,0,0,1,7.65-13.32,48.8,48.8,0,0,1,5.53-5.7,36.31,36.31,0,0,1,5.27-3.82,60.32,60.32,0,0,1,8.65-4.39,23.36,23.36,0,0,1,7.85-1.78,26.65,26.65,0,0,1,6.47-.65Q1025.08,102.63,1034.22,102.63Z"/><polygon class="cls-3" points="-52.08 -129.17 508.09 -129.17 508.09 431 -52.08 431 -52.08 -129.17 -52.08 -129.17"/><path class="cls-4" d="M141.19,119.76a6.17,6.17,0,1,1-6.17-6.17,6.17,6.17,0,0,1,6.17,6.17Zm279.26,101a2.7,2.7,0,0,0-2.45-.23,4.56,4.56,0,0,0-1.79,1.68l-6.86,10.66-7.09-10.66a4.53,4.53,0,0,0-1.93-1.77,2.77,2.77,0,0,0-2.56.33c-1.53,1.08-1.64,2.66-.32,4.71l8.83,12.64v10.61a3,3,0,0,0,.75,2.1,3.14,3.14,0,0,0,4.25,0,3,3,0,0,0,.77-2.1V237.84l8.7-13a4,4,0,0,0,.77-2.17,2.41,2.41,0,0,0-1.07-2Zm-31.08-.48H368a2.88,2.88,0,0,0-2,.68,2.45,2.45,0,0,0-.76,1.89,2.55,2.55,0,0,0,.75,1.89,2.81,2.81,0,0,0,2,.73h7.78v23.3a3,3,0,0,0,.75,2.11,3.19,3.19,0,0,0,4.27,0,3,3,0,0,0,.75-2.11v-23.3h7.78a2.83,2.83,0,0,0,2-.73,2.52,2.52,0,0,0,.75-1.89,2.41,2.41,0,0,0-.76-1.89,2.91,2.91,0,0,0-2-.68Zm-32,0a2.73,2.73,0,0,0-2.14.85,3.1,3.1,0,0,0-.75,2.13v25.51a3,3,0,0,0,.74,2.11,3.16,3.16,0,0,0,4.25,0,3,3,0,0,0,.77-2.11V223.21a3,3,0,0,0-.77-2.13,2.73,2.73,0,0,0-2.11-.85Zm-12.81,14.83c-1.16-.6-2.44-1.18-3.8-1.72s-2.63-1-3.79-1.35a7.75,7.75,0,0,1-2.83-1.52,2.91,2.91,0,0,1-1.11-2.31c0-2.06,1.4-3.06,4.27-3.06a14.2,14.2,0,0,1,5.46,1.2c2.29,1,3.81.8,4.51-.58.83-1.63.28-3-1.65-4a15.67,15.67,0,0,0-7.92-1.92c-3.38,0-6,.78-7.79,2.3a7.83,7.83,0,0,0-2.7,6.26,8.32,8.32,0,0,0,1.67,5.29,9.58,9.58,0,0,0,4,3c1.55.62,3.11,1.17,4.62,1.65a13.52,13.52,0,0,1,3.87,1.86,3.4,3.4,0,0,1,1.54,2.91,3.08,3.08,0,0,1-1.38,2.77,6.85,6.85,0,0,1-3.88,1,16,16,0,0,1-6.68-1.65c-2.08-.85-3.46-.62-4.1.62a2.63,2.63,0,0,0-.12,2.46,4.58,4.58,0,0,0,2.13,2,18.9,18.9,0,0,0,8.63,1.86c3.72,0,6.55-.89,8.41-2.64a9.29,9.29,0,0,0,2.8-7.08,8.23,8.23,0,0,0-1.2-4.51,7.73,7.73,0,0,0-3-2.81Zm-40.24-9.62a31.61,31.61,0,0,1,3.24-.25c4.2,0,6.25,1.53,6.25,4.68a4.48,4.48,0,0,1-1.59,3.83,8.48,8.48,0,0,1-5,1.2,25.6,25.6,0,0,1-2.88-.15v-9.31Zm9.95,12.71a8.28,8.28,0,0,0,4-3.09,9.47,9.47,0,0,0,1.57-5.51c0-6.33-4-9.54-11.84-9.54a32.58,32.58,0,0,0-6.79.59,3.05,3.05,0,0,0-2.67,3.28v24.84a3,3,0,0,0,.75,2.11,3.16,3.16,0,0,0,4.25,0,3,3,0,0,0,.77-2.11v-9.55a19.06,19.06,0,0,0,2.47.15,16.66,16.66,0,0,0,1.84-.07L315,249.67c.8,1.33,1.74,2,2.78,2a3.19,3.19,0,0,0,1.57-.46,2.57,2.57,0,0,0,1.25-2,3.8,3.8,0,0,0-.7-2.57l-5.59-8.49Zm-24.17,8.32H277.29v-8.36h9.85a2.84,2.84,0,0,0,2-.73,2.52,2.52,0,0,0,.75-1.89,2.44,2.44,0,0,0-.75-1.89,3,3,0,0,0-2-.68h-9.85v-7.5h12.37a2.82,2.82,0,0,0,2-.7,2.46,2.46,0,0,0,.76-1.87,2.51,2.51,0,0,0-.76-1.91,2.8,2.8,0,0,0-2-.71H274.45a2.79,2.79,0,0,0-2.16.85,3,3,0,0,0-.77,2.13v25.47a3,3,0,0,0,.79,2.13,2.92,2.92,0,0,0,2.19.84h15.61a2.84,2.84,0,0,0,2-.7,2.46,2.46,0,0,0,.76-1.87,2.51,2.51,0,0,0-.76-1.91,2.8,2.8,0,0,0-2-.7Zm-25-26c-1.81-.73-3.17.1-4,2.4l-7.52,20.43-8.2-20.65c-.84-2.13-2.21-2.85-4-2.13a2.38,2.38,0,0,0-1.6,1.86,3.55,3.55,0,0,0,.27,2.43l10.4,25.2a3,3,0,0,0,5.69-.1l9.95-25.46a3.72,3.72,0,0,0,.25-2.79,2.23,2.23,0,0,0-1.3-1.19Zm-33.77-.24a2.73,2.73,0,0,0-2.14.85,3.14,3.14,0,0,0-.74,2.13v25.51a3.07,3.07,0,0,0,.74,2.11,3.16,3.16,0,0,0,4.25,0,2.94,2.94,0,0,0,.77-2.11V223.21a3,3,0,0,0-.76-2.13,2.76,2.76,0,0,0-2.12-.85Zm-13.81,0c-1.74,0-2.62,1-2.62,3v18.12L200.36,221.8a3.39,3.39,0,0,0-2.81-1.57c-1.79,0-2.7,1-2.7,3v25.47c0,1.94.88,2.93,2.61,2.93s2.66-1,2.66-2.93v-18l14.7,19.5a3.3,3.3,0,0,0,2.58,1.42,2.61,2.61,0,0,0,2-.82,3,3,0,0,0,.75-2.11V223.21c0-2-.9-3-2.66-3Zm-33.7,0a2.52,2.52,0,0,0-2.06.86,3.24,3.24,0,0,0-.69,2.12v15.84c0,5.29-2.11,7.87-6.43,7.87s-6.43-2.55-6.43-7.78V223.21a3,3,0,0,0-.77-2.13,2.81,2.81,0,0,0-2.16-.85,2.69,2.69,0,0,0-2.1.85,3.14,3.14,0,0,0-.74,2.13v15.7a15.07,15.07,0,0,0,2.85,9.54c1.9,2.42,5,3.65,9.3,3.65a14.32,14.32,0,0,0,5.74-1,8.69,8.69,0,0,0,3.77-3,13.15,13.15,0,0,0,1.92-4.18,20.45,20.45,0,0,0,.59-5.09V223.21a3.15,3.15,0,0,0-.72-2.12,2.59,2.59,0,0,0-2.07-.86Zm-49.17,23.63a8.66,8.66,0,0,1-13.21,0,14.63,14.63,0,0,1,0-15.84,8.68,8.68,0,0,1,13.21,0,14.68,14.68,0,0,1,0,15.84ZM128,219.78c-4.74,0-8.46,1.54-11,4.57a19.26,19.26,0,0,0,0,23.21c2.59,3,6.31,4.54,11,4.54s8.47-1.53,11.07-4.54a19.14,19.14,0,0,0,0-23.21c-2.6-3-6.32-4.57-11.07-4.57Zm-24.48.45a3.32,3.32,0,0,0-2.81,1.8l-8.84,14.29-9-14.24a3.42,3.42,0,0,0-3-1.85,2.66,2.66,0,0,0-2,.76,3.07,3.07,0,0,0-.75,2.26v25.47c0,1.94.91,2.93,2.7,2.93s2.71-1,2.71-2.93V231.26l6.31,9.91a3.12,3.12,0,0,0,2.68,1.66,3.06,3.06,0,0,0,2.63-1.7l6.23-10.07v17.66a3,3,0,0,0,.77,2.11,3.16,3.16,0,0,0,4.25,0,3,3,0,0,0,.75-2.11V223.21a3.25,3.25,0,0,0-.7-2.15,2.53,2.53,0,0,0-2-.83Zm-34.15,0H48a2.88,2.88,0,0,0-2,.68,2.44,2.44,0,0,0-.75,1.89,2.52,2.52,0,0,0,.75,1.89,2.77,2.77,0,0,0,2,.73h7.78v23.3a3.07,3.07,0,0,0,.75,2.11,3.2,3.2,0,0,0,4.28,0,3.07,3.07,0,0,0,.74-2.11v-23.3h7.78a2.83,2.83,0,0,0,2-.73,2.52,2.52,0,0,0,.76-1.89,2.45,2.45,0,0,0-.76-1.89,2.94,2.94,0,0,0-2-.68Zm-32,0a2.73,2.73,0,0,0-2.14.85,3.14,3.14,0,0,0-.74,2.13v25.51a3.07,3.07,0,0,0,.74,2.11,3.16,3.16,0,0,0,4.25,0,3,3,0,0,0,.77-2.11V223.21a3.09,3.09,0,0,0-.76-2.13,2.76,2.76,0,0,0-2.12-.85ZM351.16,66.62a3.61,3.61,0,1,1-3.6-3.6,3.6,3.6,0,0,1,3.6,3.6ZM324.6,53.34A3.61,3.61,0,1,1,321,49.73a3.61,3.61,0,0,1,3.61,3.61ZM244.89,66.62a3.61,3.61,0,1,1-3.6-3.6,3.6,3.6,0,0,1,3.6,3.6Zm82.27,39.85A6.17,6.17,0,1,1,321,100.3a6.18,6.18,0,0,1,6.17,6.17ZM324.6,133a3.61,3.61,0,1,1-3.61-3.61A3.61,3.61,0,0,1,324.6,133ZM303.68,93.19a9.26,9.26,0,1,1-9.26-9.26,9.27,9.27,0,0,1,9.26,9.26Zm26.57-13.28A9.26,9.26,0,1,1,321,70.65a9.26,9.26,0,0,1,9.26,9.26ZM298,146.33a3.61,3.61,0,1,1-3.61-3.61,3.6,3.6,0,0,1,3.61,3.61Zm53.14-53.14a3.61,3.61,0,1,1-3.61-3.61,3.61,3.61,0,0,1,3.61,3.61ZM191.76,66.62a3.61,3.61,0,1,1-3.61-3.6,3.61,3.61,0,0,1,3.61,3.6Zm-53.13,0A3.61,3.61,0,1,1,135,63a3.61,3.61,0,0,1,3.61,3.6Zm79.51,93a3.61,3.61,0,1,1-3.61-3.61,3.61,3.61,0,0,1,3.61,3.61ZM165.19,53.34a3.61,3.61,0,1,1-3.6-3.61,3.61,3.61,0,0,1,3.6,3.61Zm0,79.51a3.61,3.61,0,1,1-3.6-3.6,3.6,3.6,0,0,1,3.6,3.6Zm-53.13-26.38a3.61,3.61,0,1,1-3.61-3.6,3.61,3.61,0,0,1,3.61,3.6Zm0,26.57a3.61,3.61,0,1,1-3.61-3.61,3.61,3.61,0,0,1,3.61,3.61Zm58.78-26.57a9.26,9.26,0,1,1-9.25-9.25,9.25,9.25,0,0,1,9.25,9.25Zm23.48,39.86a6.17,6.17,0,1,1-6.17-6.18,6.17,6.17,0,0,1,6.17,6.18Zm26.57-66.42a6.17,6.17,0,1,1-6.17-6.17,6.17,6.17,0,0,1,6.17,6.17Zm79.71,39.85a6.18,6.18,0,1,1-6.18-6.17,6.18,6.18,0,0,1,6.18,6.17Zm0-53.14a6.17,6.17,0,1,1-6.17-6.17,6.17,6.17,0,0,1,6.17,6.17ZM277.11,79.91a9.26,9.26,0,1,1-9.26-9.26,9.25,9.25,0,0,1,9.26,9.26ZM220.89,133a6.17,6.17,0,1,1-6.17-6.17,6.17,6.17,0,0,1,6.17,6.17Zm29.65-39.85a9.26,9.26,0,1,1-9.26-9.26,9.26,9.26,0,0,1,9.26,9.26Zm26.57,13.28a9.26,9.26,0,1,1-9.25-9.25,9.25,9.25,0,0,1,9.25,9.25ZM274,133a6.18,6.18,0,1,1-6.17-6.17A6.17,6.17,0,0,1,274,133Zm-26.57,13.29a6.17,6.17,0,1,1-6.17-6.18,6.18,6.18,0,0,1,6.17,6.18Zm3.08-26.57a9.26,9.26,0,1,1-9.26-9.26,9.26,9.26,0,0,1,9.26,9.26Zm-53.13,0a9.26,9.26,0,1,1-9.26-9.26,9.26,9.26,0,0,1,9.26,9.26ZM224,106.47a9.26,9.26,0,1,1-9.26-9.25,9.26,9.26,0,0,1,9.26,9.25ZM197.41,93.19a9.26,9.26,0,1,1-9.26-9.26,9.26,9.26,0,0,1,9.26,9.26ZM170.84,79.91a9.26,9.26,0,1,1-9.25-9.26,9.25,9.25,0,0,1,9.25,9.26Z"/><path class="cls-5" d="M144.28,93.19A9.26,9.26,0,1,1,135,83.93a9.27,9.27,0,0,1,9.26,9.26Z"/></svg>