<svg id="Layer_1" data-name="Layer 1" xmlns="http://www.w3.org/2000/svg" xmlns:xlink="http://www.w3.org/1999/xlink" viewBox="0 0 1440 1080"><defs><style>.cls-1,.cls-3{fill:none;}.cls-2{clip-path:url(#clip-path);}.cls-3{stroke:#0047ba;stroke-miterlimit:10;stroke-width:1.2px;}.cls-4{fill:#0047ba;}.cls-5{fill:#ec0b43;}</style><clipPath id="clip-path"><rect class="cls-1" x="1046.62" y="20.25" width="348.94" height="106.03"/></clipPath></defs><title>slide_svgs</title><g class="cls-2"><path class="cls-3" d="M1342.54,125.69H1099.63a52.57,52.57,0,0,1-52.41-52.42h0a52.57,52.57,0,0,1,52.41-52.42h242.91A52.58,52.58,0,0,1,1395,73.27h0a52.58,52.58,0,0,1-52.42,52.42Z"/></g><path class="cls-4" d="M1125.62,67.38a1.91,1.91,0,0,0,1.46-.57,2,2,0,0,0,.53-1.46V46.49a2.13,2.13,0,0,0-.53-1.48,1.88,1.88,0,0,0-1.46-.58,1.85,1.85,0,0,0-1.48.58,2.12,2.12,0,0,0-.52,1.48V65.35a2,2,0,0,0,.52,1.46,1.88,1.88,0,0,0,1.48.57Z"/><path class="cls-4" d="M1152.68,47.49a1.76,1.76,0,0,0,.51-1.3,1.67,1.67,0,0,0-.51-1.3,2.06,2.06,0,0,0-1.42-.46h-15.77a2,2,0,0,0-1.38.46,1.67,1.67,0,0,0-.51,1.3,1.76,1.76,0,0,0,.51,1.3,1.93,1.93,0,0,0,1.38.49h5.89V65.35a2,2,0,0,0,.52,1.46,1.88,1.88,0,0,0,1.48.57,1.91,1.91,0,0,0,1.48-.57,2.08,2.08,0,0,0,.51-1.46V48h5.89a2,2,0,0,0,1.42-.49Z"/><path class="cls-4" d="M1176.91,66.81a2.18,2.18,0,0,0,2.94,0,2.08,2.08,0,0,0,.52-1.46V46.49a2.26,2.26,0,0,0-.49-1.5,1.7,1.7,0,0,0-1.38-.56,2.31,2.31,0,0,0-2,1.26l-6.65,10.74-6.79-10.71a2.36,2.36,0,0,0-2.06-1.29,1.86,1.86,0,0,0-1.35.51,2.18,2.18,0,0,0-.51,1.58V65.35c0,1.35.62,2,1.86,2s1.86-.68,1.86-2V52l4.93,7.71a2,2,0,0,0,3.69,0l4.86-7.85V65.35a2,2,0,0,0,.53,1.46Z"/><path class="cls-4" d="M1203.6,61.84a6.54,6.54,0,0,1-10,0,9.61,9.61,0,0,1-1.75-5.94,9.65,9.65,0,0,1,1.75-5.94,6.54,6.54,0,0,1,10,0,9.65,9.65,0,0,1,1.75,5.94,9.61,9.61,0,0,1-1.75,5.94Zm-5-17.75q-5.22,0-8.06,3.33a12.57,12.57,0,0,0-2.85,8.48,12.57,12.57,0,0,0,2.85,8.5q2.84,3.31,8.06,3.31t8.09-3.31a12.58,12.58,0,0,0,2.86-8.5,12.58,12.58,0,0,0-2.86-8.48,10.1,10.1,0,0,0-8.09-3.33Z"/><path class="cls-4" d="M1150.66,53.52a1.77,1.77,0,0,0-.11-.69,2.85,2.85,0,0,0-.36-.68,4.18,4.18,0,0,0-.35-.4l-.28-.28a3.08,3.08,0,0,0-.27-.25.76.76,0,0,0-.37-.24,1.53,1.53,0,0,0-.53.17c-.27.1-.41.19-.44.27a2.11,2.11,0,0,0,0,.3.92.92,0,0,0,0,.16,1.48,1.48,0,0,0,0,.21c0,.06,0,.13,0,.2v.17s.13.19.37.4a4.11,4.11,0,0,1,.62.64.91.91,0,0,1,.26.65,4.43,4.43,0,0,1,0,.66,2.43,2.43,0,0,1-.16.56,2.62,2.62,0,0,1-.3.51,3.55,3.55,0,0,1-.47.49.63.63,0,0,0-.15.17,1.76,1.76,0,0,0-.14.23,2.77,2.77,0,0,0-.1.26,1,1,0,0,0,0,.23.57.57,0,0,0,.22.47.83.83,0,0,0,.54.19c.39,0,.73-.28,1-.83a7.68,7.68,0,0,0,.75-1.9,8,8,0,0,0,.3-1.67Z"/><path class="cls-4" d="M1152.37,58.34q-.28.34-.54.69a4.53,4.53,0,0,0-.29.49,4.45,4.45,0,0,0-.25.54,4.75,4.75,0,0,0-.18.57,2.62,2.62,0,0,0-.06.54,1.69,1.69,0,0,0,.26.94,3.68,3.68,0,0,0,.65.8,8.28,8.28,0,0,0,.84.71c.31.23.59.45.85.68a4.1,4.1,0,0,1,.65.68,1.29,1.29,0,0,1,.26.76,2,2,0,0,1-.17.72,1.93,1.93,0,0,1-.58.74,1.49,1.49,0,0,1-.31.2l-.32.15-.29.09-.21,0h-.36l-.18,0-.11,0a1.1,1.1,0,0,0-.41.35.94.94,0,0,0-.15.58,1.08,1.08,0,0,0,.17.64.8.8,0,0,0,.68.23,2.49,2.49,0,0,0,.81-.15A4,4,0,0,0,1154,69a5.57,5.57,0,0,0,.84-.65,4.71,4.71,0,0,0,.73-.82,4.24,4.24,0,0,0,.5-.94,3.06,3.06,0,0,0,.18-1,1.89,1.89,0,0,0-.12-.67,2.65,2.65,0,0,0-.33-.62,6.06,6.06,0,0,0-.47-.56c-.18-.19-.36-.37-.55-.55l-.63-.53-.62-.53a7.67,7.67,0,0,1-.58-.56,4.14,4.14,0,0,1-.52-.64c.22-.23.45-.46.69-.68l.87-.82a3.4,3.4,0,0,0,.55-.7,1.3,1.3,0,0,0,.24-.67c0-.55-.24-.82-.71-.82a1.07,1.07,0,0,0-.53.16,2.69,2.69,0,0,0-.59.42,6.79,6.79,0,0,0-.6.6Z"/><path class="cls-4" d="M1212.75,61a3.33,3.33,0,0,0,0,.37c0,.12,0,.25,0,.39s0,.32,0,.53,0,.47,0,.78c0,.13,0,.3,0,.5s0,.43,0,.67,0,.49,0,.75,0,.51,0,.75,0,.46,0,.66,0,.37,0,.5,0,.3,0,.51a3.52,3.52,0,0,0,.09.64,1.65,1.65,0,0,0,.22.54.46.46,0,0,0,.42.23.79.79,0,0,0,.52-.13.8.8,0,0,0,.17-.15l.2-.22c.1-.63.23-1.22.37-1.77a10.85,10.85,0,0,1,.53-1.58,8.62,8.62,0,0,1,.74-1.41,7.48,7.48,0,0,1,1-1.27,6.08,6.08,0,0,1,1.48-1.16,7.62,7.62,0,0,1,1.37-.6l.57-.17a4.35,4.35,0,0,0,.51-.17,1.49,1.49,0,0,0,.36-.2.3.3,0,0,0,.14-.26.56.56,0,0,0-.14-.4,1,1,0,0,0-.34-.26,1.7,1.7,0,0,0-.45-.15,2.19,2.19,0,0,0-.42,0,3.74,3.74,0,0,0-1.79.45,6.75,6.75,0,0,0-1.55,1.16,10,10,0,0,0-1.3,1.57,18.59,18.59,0,0,0-1,1.72,7.08,7.08,0,0,1,0-.88c0-.34.06-.71.1-1.08s.07-.75.11-1.11,0-.67,0-.93a1.07,1.07,0,0,0-.07-.39.93.93,0,0,0-.21-.33,1,1,0,0,0-.32-.24.9.9,0,0,0-.4-.09,1,1,0,0,0-.38.08,1.16,1.16,0,0,0-.34.24,1.21,1.21,0,0,0-.24.35,1.06,1.06,0,0,0-.09.42c0,.29,0,.53,0,.71s0,.34,0,.47Z"/><path class="cls-4" d="M1224.27,60.32a6.85,6.85,0,0,1,.72-1.38,4,4,0,0,1,.89-.9,1.65,1.65,0,0,1,.93-.33.59.59,0,0,1,.17,0,.69.69,0,0,1,.19.1.54.54,0,0,1,.15.15.37.37,0,0,1,.06.21,1.88,1.88,0,0,1-.07.53,1.94,1.94,0,0,1-.26.52,4.45,4.45,0,0,1-.49.58,10.11,10.11,0,0,1-.78.71l-.49.41-.55.42c-.18.15-.35.27-.51.39l-.38.27a6.67,6.67,0,0,1,.42-1.72ZM1232,62c-.13,0-.3.12-.52.36a12.3,12.3,0,0,1-1.27,1.23,9,9,0,0,1-1.39,1,7.33,7.33,0,0,1-1.47.65,5.11,5.11,0,0,1-1.47.23,2,2,0,0,1-.93-.19,1.64,1.64,0,0,1-.59-.47,1.78,1.78,0,0,1-.3-.62,3.11,3.11,0,0,1-.08-.65.3.3,0,0,1,.15-.25l.28-.18a22.52,22.52,0,0,0,1.94-1.3,13.2,13.2,0,0,0,1.48-1.31,5.94,5.94,0,0,0,1-1.3,2.7,2.7,0,0,0,.34-1.28,1.7,1.7,0,0,0-.12-.61,1.67,1.67,0,0,0-.9-1,1.64,1.64,0,0,0-.74-.16,3.34,3.34,0,0,0-1.07.16,4,4,0,0,0-.91.43,4.75,4.75,0,0,0-.75.59c-.23.22-.43.44-.62.65a7.64,7.64,0,0,0-.78,1.14,8.8,8.8,0,0,0-.56,1.26,8.49,8.49,0,0,0-.33,1.32,7.28,7.28,0,0,0-.11,1.3,4.63,4.63,0,0,0,.88,3.06,3.14,3.14,0,0,0,2.51,1,5,5,0,0,0,1.44-.22,7.84,7.84,0,0,0,1.46-.59,10.08,10.08,0,0,0,1.41-.89,10.21,10.21,0,0,0,1.25-1.11,6.16,6.16,0,0,0,.76-.95,1.47,1.47,0,0,0,.27-.78,1.54,1.54,0,0,0-.05-.45A.17.17,0,0,0,1232,62Z"/><path class="cls-4" d="M1273.5,58.59l-.06.39c0,.14,0,.28-.08.42s0,.26-.07.37a5,5,0,0,1-.43,1.12,11.8,11.8,0,0,1-.74,1.26c-.29.43-.6.84-.93,1.25s-.66.76-1,1.07a7,7,0,0,1-.9.76,1.37,1.37,0,0,1-.67.28.85.85,0,0,1-.48-.17.56.56,0,0,1-.23-.48,3.75,3.75,0,0,1,.13-1,6.22,6.22,0,0,1,.32-.92c.13-.28.26-.54.4-.78l.39-.66a17.51,17.51,0,0,1,1.11-1.68,8.41,8.41,0,0,1,1-1.13,4,4,0,0,1,.92-.65,2.61,2.61,0,0,1,.81-.26h0a.29.29,0,0,1,.19.08.65.65,0,0,1,.15.18.87.87,0,0,1,.1.19l0,.1a1.78,1.78,0,0,1,0,.28Zm18.55,8.33a4.23,4.23,0,0,0,1.2-.63,2.7,2.7,0,0,0,.72-.81,1.6,1.6,0,0,0,.25-.8l-.1-.42a.34.34,0,0,0-.14,0l-.16.1-.21.16c-.28.21-.53.38-.76.52a5.17,5.17,0,0,1-.66.34,3.11,3.11,0,0,1-.68.19,5.08,5.08,0,0,1-.82,0,2.32,2.32,0,0,1-1.22-.3,2.14,2.14,0,0,1-.79-.84,4.16,4.16,0,0,1-.44-1.29,9.32,9.32,0,0,1-.13-1.64c0-.06,0-.16,0-.3l.06-.46c0-.16,0-.32.06-.46a2.52,2.52,0,0,0,0-.29,1,1,0,0,1,0-.17v-.17a.63.63,0,0,0-.08-.35c0-.1-.18-.15-.38-.15a2.48,2.48,0,0,0-.82.14,2.81,2.81,0,0,0-.72.39,4,4,0,0,0-.66.59c-.21.22-.42.48-.63.75s-.37.46-.65.77l-.85,1-.86.95c-.27.31-.48.56-.63.77q0-.42.06-.72c0-.2,0-.42,0-.65s.07-.5.12-.82.13-.75.25-1.28c.06-.25.11-.51.16-.76s.1-.49.14-.7.06-.37.08-.51,0-.21,0-.21a2.64,2.64,0,0,1,0-.28,1.56,1.56,0,0,0,0-.31,1.14,1.14,0,0,0,0-.26.49.49,0,0,0-.11-.23.51.51,0,0,0-.23-.17,1,1,0,0,0-.37-.06,1,1,0,0,0-.53.13,1.16,1.16,0,0,0-.37.36,1.46,1.46,0,0,0-.22.51,2.35,2.35,0,0,0-.08.6v.15c-.62.62-1.22,1.24-1.81,1.86a19.93,19.93,0,0,1-1.92,1.77,7.12,7.12,0,0,1-.81.56,1.34,1.34,0,0,1-.7.2.63.63,0,0,1-.51-.29,2.48,2.48,0,0,1-.35-.71,4.47,4.47,0,0,1-.21-.91,5.37,5.37,0,0,1-.07-.84,5.05,5.05,0,0,1,.09-1c.06-.29.12-.55.19-.79s.13-.43.19-.6a1.54,1.54,0,0,0,.09-.48.33.33,0,0,0-.11-.22,1.89,1.89,0,0,0-.25-.23l-.28-.24a.63.63,0,0,1-.18-.2c0-.1-.09-.19-.14-.29a1.38,1.38,0,0,0-.17-.25.67.67,0,0,0-.22-.19.7.7,0,0,0-.3-.07,4.72,4.72,0,0,0-1.84.37,5.4,5.4,0,0,0-1.7,1.14,10.65,10.65,0,0,0-1.36,1.61,15,15,0,0,0-1.07,1.8l-.14.12-.88.84c-.26.24-.51.46-.77.66s-.54.39-.84.58-.66.38-1.07.58a5.62,5.62,0,0,1-2.44.56.51.51,0,0,1-.45-.29,2.71,2.71,0,0,1-.3-.74,8.38,8.38,0,0,1-.18-1c0-.37-.1-.73-.14-1.09s-.1-.8-.16-1.17a7.74,7.74,0,0,0-.3-1.12.82.82,0,0,0-.16-.25,1.3,1.3,0,0,0-.22-.19,1.34,1.34,0,0,0-.24-.12.93.93,0,0,0-.19,0,2.12,2.12,0,0,0-.82.19,5.3,5.3,0,0,0-.87.47,10,10,0,0,0-.82.64c-.26.24-.5.46-.71.68s-.34.35-.51.55l-.52.6q-.25.3-.48.6c-.16.19-.3.37-.43.54a6.32,6.32,0,0,0-.4.54c-.13.2-.26.38-.39.56l-.33.5a3.84,3.84,0,0,1-.23.34h0s-.07,0-.11-.08a.25.25,0,0,1-.07-.15,6.57,6.57,0,0,1,.09-1c.06-.39.12-.84.17-1.35,0-.34.05-.65.08-.95l.09-.86.09-.87c0-.29.06-.6.08-.93s0-.61.07-1,.06-.74.1-1.12.07-.75.12-1.12.09-.69.14-1a3,3,0,0,1,.08-.33l.12-.47c0-.16.07-.32.11-.47a1.86,1.86,0,0,0,0-.36.89.89,0,0,0-.24-.66A.75.75,0,0,0,1253,52a.62.62,0,0,0-.29.07,1.4,1.4,0,0,0-.26.16,2.08,2.08,0,0,0-.21.21,1,1,0,0,0-.13.2c-.09.19-.16.37-.22.53a3.32,3.32,0,0,0-.14.49c0,.16,0,.32-.07.49s0,.34,0,.54,0,.38,0,.63,0,.52,0,.81v0h0l-.56.3c-.21.11-.44.23-.69.34a4.91,4.91,0,0,1-.9.32c-.34.1-.7.19-1.07.27l-1.1.21-1,.15-.74.1-.33,0a.28.28,0,0,1-.21-.1.57.57,0,0,1-.06-.32,1.78,1.78,0,0,1,0-.3,4.4,4.4,0,0,1,.08-.45c0-.18.09-.42.16-.69s.14-.62.24-1q0-.09.06-.3t.09-.48c0-.18.06-.37.1-.57s.07-.38.1-.55l.07-.44c0-.12,0-.2,0-.23a.61.61,0,0,0-.06-.22,1.46,1.46,0,0,0-.17-.29,1.42,1.42,0,0,0-.25-.24.51.51,0,0,0-.3-.1.5.5,0,0,0-.22.09,1.94,1.94,0,0,0-.29.23,1.79,1.79,0,0,0-.25.31.58.58,0,0,0-.11.3c0,.09,0,.24-.05.44s0,.42-.09.67-.09.51-.14.79-.1.55-.14.81-.1.5-.14.72-.07.37-.1.49a4.75,4.75,0,0,1-.42,1.17,1,1,0,0,1-.46.45l-.36.06c-.17,0-.37.05-.6.07l-.73.05-.76,0-.66,0h-.45a1,1,0,0,0-.3,0,.6.6,0,0,0-.26.14.68.68,0,0,0-.2.24.8.8,0,0,0-.08.36.64.64,0,0,0,.08.25,1.68,1.68,0,0,0,.2.29,1.61,1.61,0,0,0,.28.24.6.6,0,0,0,.33.1h.27l.51,0,.63,0,.63,0,.52,0h.5a1,1,0,0,1,.34.05.39.39,0,0,1,.26.24c-.09.68-.19,1.31-.3,1.88s-.22,1.13-.33,1.66-.2,1.06-.27,1.58a10.42,10.42,0,0,0-.12,1.61,2.42,2.42,0,0,0,0,.28,1.69,1.69,0,0,0,.13.42,1.16,1.16,0,0,0,.26.39.57.57,0,0,0,.42.17.63.63,0,0,0,.21-.08l.31-.19a3.23,3.23,0,0,0,.27-.23.39.39,0,0,0,.13-.17q0-.23,0-.39v-.67a2.52,2.52,0,0,1,0-.39c0-.26,0-.51,0-.74s.05-.48.08-.73.07-.52.11-.8.1-.62.16-1a3.56,3.56,0,0,0,.06-.4c0-.19.06-.4.1-.63s.07-.47.11-.71a5.77,5.77,0,0,1,.12-.67c0-.2.08-.36.11-.49s.08-.2.11-.2c.56,0,1.12-.1,1.67-.19s1.09-.19,1.6-.3,1-.26,1.46-.41.88-.31,1.26-.47a4.2,4.2,0,0,0,.74-.43l.18-.14c0,.07,0,.15,0,.22,0,.27,0,.52,0,.75s0,.41,0,.55c0,.42-.07.9-.12,1.43s-.1,1.08-.15,1.63-.11,1.1-.18,1.65-.11,1-.16,1.49c0,.24-.06.49-.11.76s-.08.54-.12.79-.08.49-.11.69a3.15,3.15,0,0,0,0,.44.71.71,0,0,0,.08.31,1.13,1.13,0,0,0,.54.49.84.84,0,0,0,.34.08,1,1,0,0,0,.27-.11,1.12,1.12,0,0,0,.37-.38l.74-1.38c.29-.52.61-1,1-1.57s.83-1.2,1.29-1.79.91-1.11,1.35-1.57a10.86,10.86,0,0,1,1.22-1.13,1.73,1.73,0,0,1,.88-.43q.09,0,.15.15a3.11,3.11,0,0,1,.12.39c0,.16.06.33.09.53s0,.38.07.56,0,.35.05.5,0,.26,0,.34a12.76,12.76,0,0,0,.21,1.35,4.4,4.4,0,0,0,.41,1.14,1.57,1.57,0,0,0,.73.73,2.52,2.52,0,0,0,1.08.23,5,5,0,0,0,1.57-.28,7.51,7.51,0,0,0,1.49-.71,11.67,11.67,0,0,0,1.38-1c.28-.23.54-.47.79-.7a5.74,5.74,0,0,0-.22,1.44,2,2,0,0,0,.17.83,2.15,2.15,0,0,0,.45.61,1.9,1.9,0,0,0,.65.37,2.13,2.13,0,0,0,.76.13A1.37,1.37,0,0,0,1269,67a9.3,9.3,0,0,0,.8-.51,11.08,11.08,0,0,0,.88-.69,6.72,6.72,0,0,0,.76-.74,2.7,2.7,0,0,0,.25-.31l.36-.45c.14-.16.27-.34.41-.51l.39-.48.31-.34c.09-.09.15-.14.18-.14s.08,0,.11.12a1.63,1.63,0,0,1,.1.29c0,.12,0,.24.08.37s.06.26.09.36a2.54,2.54,0,0,0,.66,1,2.06,2.06,0,0,0,.47.32,1.2,1.2,0,0,0,.51.13,3,3,0,0,0,1.35-.39,6.57,6.57,0,0,0,1.5-1.06c.49-.43,1-.89,1.43-1.38a13.75,13.75,0,0,0,1.33-1.57c0,.23,0,.46-.05.7a17,17,0,0,1-.2,1.79c-.08.48-.16.91-.22,1.28,0,.13,0,.28-.08.44s0,.33-.07.5a4.53,4.53,0,0,0-.06.5c0,.16,0,.3,0,.43a.51.51,0,0,0,.07.26.9.9,0,0,0,.53.42,1.05,1.05,0,0,0,.4.07.88.88,0,0,0,.39-.07.8.8,0,0,0,.28-.22,2.89,2.89,0,0,0,.29-.43c.1-.17.24-.39.41-.65s.25-.35.45-.61l.69-.86.82-.95c.29-.33.56-.64.83-.92s.5-.54.71-.75a3.84,3.84,0,0,1,.49-.42,11,11,0,0,0,.25,2.54,5,5,0,0,0,.75,1.76,2.94,2.94,0,0,0,1.2,1,4,4,0,0,0,1.64.32,4.81,4.81,0,0,0,1.63-.25Z"/><path class="cls-4" d="M1139.48,79a1.74,1.74,0,0,0-1.42.58,2.31,2.31,0,0,0-.49,1.5V92.87c0,4-1.64,6-4.92,6s-4.93-2-4.93-5.93V81.08a2.13,2.13,0,0,0-.53-1.5,1.94,1.94,0,0,0-1.51-.58,1.86,1.86,0,0,0-1.46.58,2.22,2.22,0,0,0-.52,1.5V92.77a11,11,0,0,0,2.1,7c1.39,1.77,3.67,2.66,6.82,2.66a10.63,10.63,0,0,0,4.22-.77,6.37,6.37,0,0,0,2.74-2.16,9.44,9.44,0,0,0,1.41-3.07,14.85,14.85,0,0,0,.44-3.75V81.08a2.22,2.22,0,0,0-.51-1.5,1.78,1.78,0,0,0-1.44-.58Z"/><path class="cls-4" d="M1166.45,79c-1.2,0-1.81.69-1.81,2.08V95L1153.59,80.1a2.4,2.4,0,0,0-2-1.1c-1.25,0-1.87.7-1.87,2.11v19q0,2,1.8,2c1.23,0,1.85-.68,1.85-2V86.27l11.19,14.84a2.27,2.27,0,0,0,1.8,1,1.77,1.77,0,0,0,1.39-.57,2.08,2.08,0,0,0,.52-1.47v-19c0-1.39-.61-2.08-1.84-2.08Z"/><path class="cls-4" d="M1178.61,79a1.9,1.9,0,0,0-1.49.58,2.22,2.22,0,0,0-.52,1.5v19a2.13,2.13,0,0,0,.52,1.47,2.22,2.22,0,0,0,3,0,2.09,2.09,0,0,0,.53-1.47v-19a2.18,2.18,0,0,0-.53-1.5,1.91,1.91,0,0,0-1.48-.58Z"/><path class="cls-4" d="M1205.58,79.17q-1.9-.78-2.78,1.7l-5.73,15.55-6.23-15.71c-.6-1.52-1.53-2-2.78-1.51a1.67,1.67,0,0,0-1.11,1.29,2.5,2.5,0,0,0,.21,1.72l7.73,18.76a2.07,2.07,0,0,0,4-.06l7.4-19c.58-1.43.35-2.36-.7-2.78Z"/><path class="cls-4" d="M1226.15,98.53h-9.68V92h7.47a2,2,0,0,0,1.42-.5,1.73,1.73,0,0,0,.52-1.31,1.67,1.67,0,0,0-.52-1.31,2,2,0,0,0-1.42-.46h-7.47V82.58h9.35a2,2,0,0,0,1.39-.48,1.72,1.72,0,0,0,.52-1.29,1.77,1.77,0,0,0-.52-1.33,2,2,0,0,0-1.39-.48h-11.33a1.94,1.94,0,0,0-1.51.58,2.18,2.18,0,0,0-.53,1.5v19a2.08,2.08,0,0,0,.55,1.49,2,2,0,0,0,1.53.58h11.62a2,2,0,0,0,1.39-.48,1.9,1.9,0,0,0,0-2.61,1.94,1.94,0,0,0-1.39-.49Z"/><path class="cls-4" d="M1244.58,89a6.46,6.46,0,0,1-3.82.92,17.75,17.75,0,0,1-2.28-.13V82.62a21.69,21.69,0,0,1,2.55-.2q4.79,0,4.79,3.61a3.48,3.48,0,0,1-1.24,3Zm1.24,3.13a6.11,6.11,0,0,0,3.08-2.31,6.86,6.86,0,0,0,1.14-4q0-7-8.68-7a24,24,0,0,0-5,.44,2.13,2.13,0,0,0-1.87,2.31v18.49a2.08,2.08,0,0,0,.52,1.47,2.21,2.21,0,0,0,3,0,2.05,2.05,0,0,0,.54-1.47V92.8a13.43,13.43,0,0,0,2,.13,12.06,12.06,0,0,0,1.44-.06l4.75,7.84q1.27,2.1,3,1.1a1.74,1.74,0,0,0,.87-1.39,2.69,2.69,0,0,0-.5-1.82l-4.25-6.47Z"/><path class="cls-4" d="M1270.39,90a28.64,28.64,0,0,0-2.82-1.27c-1-.4-2-.74-2.81-1a6,6,0,0,1-2.16-1.15,2.34,2.34,0,0,1-.87-1.83c0-1.61,1.1-2.41,3.32-2.41a10.66,10.66,0,0,1,4.12.9c1.63.72,2.69.6,3.18-.37.58-1.13.19-2.07-1.17-2.81a11.49,11.49,0,0,0-5.83-1.41,8.58,8.58,0,0,0-5.72,1.68,5.69,5.69,0,0,0-2,4.55,6,6,0,0,0,1.2,3.86,7.13,7.13,0,0,0,2.93,2.19c1.15.46,2.3.87,3.44,1.22a10.11,10.11,0,0,1,2.91,1.41,2.7,2.7,0,0,1,1.21,2.28,2.48,2.48,0,0,1-1.09,2.18,5.26,5.26,0,0,1-3,.73,12,12,0,0,1-5-1.24c-1.48-.6-2.44-.46-2.88.41a1.83,1.83,0,0,0-.09,1.71,3.36,3.36,0,0,0,1.53,1.44,13.84,13.84,0,0,0,6.36,1.37c2.75,0,4.8-.64,6.17-1.93a6.77,6.77,0,0,0,2-5.17,6,6,0,0,0-.87-3.29,5.68,5.68,0,0,0-2.16-2Z"/><path class="cls-4" d="M1281.86,79a1.9,1.9,0,0,0-1.49.58,2.22,2.22,0,0,0-.52,1.5v19a2.13,2.13,0,0,0,.52,1.47,2.22,2.22,0,0,0,3,0,2.09,2.09,0,0,0,.53-1.47v-19a2.18,2.18,0,0,0-.53-1.5,1.91,1.91,0,0,0-1.48-.58Z"/><path class="cls-4" d="M1307.56,79h-15.88a2,2,0,0,0-1.39.47,1.65,1.65,0,0,0-.52,1.3,1.72,1.72,0,0,0,.52,1.31,1.88,1.88,0,0,0,1.39.5h5.93v17.49a2.08,2.08,0,0,0,.52,1.47,2.23,2.23,0,0,0,3,0,2.13,2.13,0,0,0,.52-1.47V82.58h5.93a1.92,1.92,0,0,0,1.42-.5,1.72,1.72,0,0,0,.52-1.31,1.65,1.65,0,0,0-.52-1.3,2,2,0,0,0-1.42-.47Z"/><path class="cls-4" d="M1332.52,79.33a1.91,1.91,0,0,0-1.71-.16,3.21,3.21,0,0,0-1.28,1.2l-5.22,8.11-5.4-8.11a3.21,3.21,0,0,0-1.37-1.27,1.94,1.94,0,0,0-1.77.23c-1.08.76-1.14,1.87-.21,3.32l6.6,9.45V100a2.13,2.13,0,0,0,.52,1.47,2.22,2.22,0,0,0,3,0,2,2,0,0,0,.53-1.47V91.93l6.5-9.72a2.94,2.94,0,0,0,.56-1.54,1.69,1.69,0,0,0-.72-1.34Z"/><path class="cls-4" d="M1306.49,60.38a6.55,6.55,0,0,1-.36.95c-.14.32-.31.63-.48.94s-.36.58-.53.84a6.34,6.34,0,0,1-.62.77,10.53,10.53,0,0,1-.76.74,6.44,6.44,0,0,1-.74.57,1.13,1.13,0,0,1-.52.23.78.78,0,0,1-.71-.3,1.42,1.42,0,0,1-.19-.79,2.89,2.89,0,0,1,.12-.76,7.65,7.65,0,0,1,.3-.88q.2-.46.45-1c.17-.32.34-.64.53-1s.36-.61.55-.89.36-.54.53-.77a2.51,2.51,0,0,1,.32-.36,3.08,3.08,0,0,1,.44-.35,2.6,2.6,0,0,1,.5-.25,1.46,1.46,0,0,1,.53-.1.66.66,0,0,1,.54.34,2.15,2.15,0,0,1,.23,1.13,3,3,0,0,1-.13.86Zm5.58,3.44c-.06,0-.11,0-.17.11a3.07,3.07,0,0,1-.2.27,2.71,2.71,0,0,1-.9.8,2.76,2.76,0,0,1-1.3.27,1.28,1.28,0,0,1-.63-.16,1.3,1.3,0,0,1-.52-.56,4,4,0,0,1-.34-1.13,11.25,11.25,0,0,1-.12-1.82,5.66,5.66,0,0,1,.07-.88c0-.32.1-.63.16-.92s.11-.56.16-.78a2.46,2.46,0,0,0,.06-.34h0v-.1h0a2.09,2.09,0,0,0-1.08-1.82,2.27,2.27,0,0,0-2.06,0,2.89,2.89,0,0,0-.66.29l-.4.27-.12.09,0,0h0a6.05,6.05,0,0,0-.57.48,10.36,10.36,0,0,0-1.17,1.27,10.07,10.07,0,0,0-1,1.54c-.25.48-.46.92-.63,1.33s-.31.77-.42,1.12a6,6,0,0,0-.3,1.82,2.19,2.19,0,0,0,.14.77,2.08,2.08,0,0,0,.37.65,1.91,1.91,0,0,0,.54.45,1.35,1.35,0,0,0,.64.16,2.75,2.75,0,0,0,1.16-.32,8.45,8.45,0,0,0,1.32-.86,14.24,14.24,0,0,0,1.31-1.18,10.79,10.79,0,0,0,1.09-1.33,9.46,9.46,0,0,0,.35,1.37,4.39,4.39,0,0,0,.54,1.13,2.72,2.72,0,0,0,.78.77,2.06,2.06,0,0,0,1.08.28,2.48,2.48,0,0,0,.93-.18,3.89,3.89,0,0,0,.83-.45,5.09,5.09,0,0,0,.69-.62,3.87,3.87,0,0,0,.49-.66,2,2,0,0,0,.22-.43,1.54,1.54,0,0,0,.07-.39.35.35,0,0,0-.12-.24.4.4,0,0,0-.27-.11Z"/><rect class="cls-5" y="76" width="1026" height="8"/></svg>