<svg id="Layer_1" data-name="Layer 1" xmlns="http://www.w3.org/2000/svg" xmlns:xlink="http://www.w3.org/1999/xlink" viewBox="0 0 1920 1080"><defs><style>.cls-1,.cls-3{fill:none;}.cls-2{clip-path:url(#clip-path);}.cls-3{stroke:#0047ba;stroke-miterlimit:10;stroke-width:1.5px;}.cls-4{fill:#0047ba;}.cls-5{fill:#ec0b43;}</style><clipPath id="clip-path"><rect class="cls-1" x="1458.3" y="13.55" width="436.18" height="132.54"/></clipPath></defs><title>slide_svgs</title><g class="cls-2"><path class="cls-3" d="M1828.21,145.34H1524.57a65.71,65.71,0,0,1-65.52-65.52h0a65.71,65.71,0,0,1,65.52-65.52h303.64a65.71,65.71,0,0,1,65.52,65.52h0a65.71,65.71,0,0,1-65.52,65.52Z"/></g><path class="cls-4" d="M1557.05,72.45a2.38,2.38,0,0,0,1.83-.7,2.58,2.58,0,0,0,.67-1.83V46.34a2.66,2.66,0,0,0-.67-1.85,2.68,2.68,0,0,0-3.68,0,2.69,2.69,0,0,0-.64,1.85V69.92a2.6,2.6,0,0,0,.64,1.83,2.38,2.38,0,0,0,1.85.7Z"/><path class="cls-4" d="M1590.88,47.59a2.2,2.2,0,0,0,.64-1.62,2.12,2.12,0,0,0-.64-1.63,2.6,2.6,0,0,0-1.77-.58H1569.4a2.53,2.53,0,0,0-1.73.58A2.08,2.08,0,0,0,1567,46a2.16,2.16,0,0,0,.64,1.62,2.41,2.41,0,0,0,1.73.62h7.36V69.92a2.6,2.6,0,0,0,.64,1.83,2.79,2.79,0,0,0,3.7,0,2.61,2.61,0,0,0,.65-1.83V48.21h7.36a2.48,2.48,0,0,0,1.77-.62Z"/><path class="cls-4" d="M1621.16,71.75a2.41,2.41,0,0,0,1.83.7,2.37,2.37,0,0,0,1.85-.7,2.61,2.61,0,0,0,.65-1.83V46.34a2.78,2.78,0,0,0-.6-1.87,2.17,2.17,0,0,0-1.73-.71,2.88,2.88,0,0,0-2.45,1.58l-8.32,13.43-8.48-13.39a3,3,0,0,0-2.58-1.62,2.28,2.28,0,0,0-1.68.65,2.69,2.69,0,0,0-.65,2V69.92c0,1.69.78,2.53,2.33,2.53s2.33-.84,2.33-2.53V53.2l6.15,9.65a2.69,2.69,0,0,0,2.33,1.45,2.67,2.67,0,0,0,2.29-1.49L1620.5,53V69.92a2.57,2.57,0,0,0,.66,1.83Z"/><path class="cls-4" d="M1654.53,65.53a8.18,8.18,0,0,1-12.48,0,12,12,0,0,1-2.18-7.42,12,12,0,0,1,2.18-7.42,8.18,8.18,0,0,1,12.48,0,11.93,11.93,0,0,1,2.18,7.42,12,12,0,0,1-2.18,7.42Zm-6.26-22.18q-6.52,0-10.08,4.15a15.77,15.77,0,0,0-3.56,10.61,15.73,15.73,0,0,0,3.56,10.62q3.55,4.14,10.08,4.14t10.1-4.14A15.64,15.64,0,0,0,1662,58.11a15.68,15.68,0,0,0-3.58-10.61q-3.57-4.16-10.1-4.15Z"/><path class="cls-4" d="M1588.35,55.13a2.12,2.12,0,0,0-.13-.86,4.53,4.53,0,0,0-.45-.86,6.25,6.25,0,0,0-.44-.49l-.35-.35c-.11-.12-.22-.22-.33-.32a.93.93,0,0,0-.47-.29,1.89,1.89,0,0,0-.67.2c-.32.13-.5.25-.54.35a1.77,1.77,0,0,0,0,.37c0,.06,0,.12,0,.2s0,.17,0,.26a2.11,2.11,0,0,1,0,.25c0,.09,0,.16,0,.21s.15.24.46.5a5.9,5.9,0,0,1,.78.81,1.2,1.2,0,0,1,.32.81,4.18,4.18,0,0,1-.07.82,3.23,3.23,0,0,1-.2.71,2.94,2.94,0,0,1-.38.63,4.07,4.07,0,0,1-.58.61.84.84,0,0,0-.19.22,2,2,0,0,0-.17.29,2,2,0,0,0-.12.31,1.18,1.18,0,0,0,0,.29.76.76,0,0,0,.29.6,1,1,0,0,0,.67.23c.48,0,.91-.34,1.29-1a9.38,9.38,0,0,0,.93-2.38,9.67,9.67,0,0,0,.37-2.09Z"/><path class="cls-4" d="M1590.5,61.16a10.67,10.67,0,0,0-.68.86,5.61,5.61,0,0,0-.37.6c-.11.22-.22.45-.31.68a5.83,5.83,0,0,0-.22.71,3.4,3.4,0,0,0-.08.69,2.23,2.23,0,0,0,.32,1.17,5.07,5.07,0,0,0,.82,1,10.38,10.38,0,0,0,1.06.89c.37.28.73.56,1,.84a5.45,5.45,0,0,1,.82.86,1.59,1.59,0,0,1,.32.94,2.39,2.39,0,0,1-.94,1.83,2.65,2.65,0,0,1-.39.26l-.4.18-.36.11-.26,0h-.45l-.22,0-.14,0a1.52,1.52,0,0,0-.52.43,1.27,1.27,0,0,0-.18.73,1.31,1.31,0,0,0,.21.8,1,1,0,0,0,.85.29,3.08,3.08,0,0,0,1-.19,4.82,4.82,0,0,0,1.1-.53,7.27,7.27,0,0,0,1.06-.81,6.71,6.71,0,0,0,.9-1,5,5,0,0,0,.63-1.18,3.76,3.76,0,0,0,.23-1.28,2.32,2.32,0,0,0-.15-.84,3.4,3.4,0,0,0-.42-.77,5.46,5.46,0,0,0-.58-.71c-.22-.23-.45-.45-.69-.68l-.78-.67q-.4-.32-.78-.66c-.25-.22-.5-.45-.73-.69a6.23,6.23,0,0,1-.64-.8,10,10,0,0,1,.86-.86c.31-.28.67-.62,1.09-1a5.28,5.28,0,0,0,.69-.87,1.72,1.72,0,0,0,.29-.84c0-.69-.3-1-.88-1a1.42,1.42,0,0,0-.67.2,4.67,4.67,0,0,0-.74.53,6.7,6.7,0,0,0-.74.76Z"/><path class="cls-4" d="M1666,64.51c0,.17,0,.32.07.46s0,.31.06.49,0,.4.05.66,0,.58,0,1c0,.16,0,.37,0,.62s0,.53,0,.83,0,.62,0,.94,0,.64,0,.94,0,.58,0,.83,0,.46,0,.62,0,.37,0,.64a4.29,4.29,0,0,0,.11.79,2.37,2.37,0,0,0,.27.69.61.61,0,0,0,.53.29,1.35,1.35,0,0,0,.38-.05.89.89,0,0,0,.26-.12,1,1,0,0,0,.22-.2l.25-.27c.13-.78.28-1.52.46-2.21a14.68,14.68,0,0,1,.66-2,11.74,11.74,0,0,1,.92-1.76,9.56,9.56,0,0,1,1.29-1.59,8.14,8.14,0,0,1,1.84-1.46,9.29,9.29,0,0,1,1.72-.74c.23-.08.47-.15.7-.21l.64-.21a2.15,2.15,0,0,0,.46-.26.39.39,0,0,0,.17-.33.7.7,0,0,0-.17-.49,1.27,1.27,0,0,0-.43-.33,1.75,1.75,0,0,0-.56-.18,2.55,2.55,0,0,0-.53,0,4.59,4.59,0,0,0-2.23.56,8.28,8.28,0,0,0-1.94,1.44,13,13,0,0,0-1.63,2,24.64,24.64,0,0,0-1.28,2.14,8.83,8.83,0,0,1,0-1.09q0-.64.12-1.35c0-.47.09-.93.13-1.38a10.66,10.66,0,0,0,.07-1.17,1.41,1.41,0,0,0-.09-.49,1.36,1.36,0,0,0-.26-.41,1.2,1.2,0,0,0-.4-.3,1.06,1.06,0,0,0-.5-.12,1.15,1.15,0,0,0-.47.11,1.45,1.45,0,0,0-.43.3,1.23,1.23,0,0,0-.3.44,1.2,1.2,0,0,0-.12.52c0,.36,0,.66,0,.88s0,.43,0,.6Z"/><path class="cls-4" d="M1680.37,63.62a8.06,8.06,0,0,1,.9-1.71,4.78,4.78,0,0,1,1.11-1.13,2.1,2.1,0,0,1,1.16-.41.68.68,0,0,1,.22.05,1,1,0,0,1,.23.12.86.86,0,0,1,.19.19.48.48,0,0,1,.07.26,2.17,2.17,0,0,1-.09.67,2.21,2.21,0,0,1-.31.64,5.86,5.86,0,0,1-.61.72,11.92,11.92,0,0,1-1,.9c-.18.16-.38.32-.61.5L1681,65c-.23.18-.44.34-.64.48l-.48.34a9.23,9.23,0,0,1,.53-2.16Zm9.6,2.16c-.16,0-.38.15-.65.45a16.52,16.52,0,0,1-1.59,1.54A11.65,11.65,0,0,1,1686,69a8.67,8.67,0,0,1-1.83.81,6.35,6.35,0,0,1-1.84.29,2.68,2.68,0,0,1-1.17-.23,2.06,2.06,0,0,1-.73-.59,2.15,2.15,0,0,1-.37-.78,3.35,3.35,0,0,1-.11-.81.38.38,0,0,1,.18-.31l.37-.22c.88-.54,1.69-1.09,2.41-1.63a16.41,16.41,0,0,0,1.86-1.64,8,8,0,0,0,1.2-1.63,3.44,3.44,0,0,0,.42-1.59,2.37,2.37,0,0,0-.14-.77,2.19,2.19,0,0,0-.44-.69,2.21,2.21,0,0,0-.69-.51,2,2,0,0,0-.93-.2,4.43,4.43,0,0,0-1.34.2,5.35,5.35,0,0,0-1.13.54,6.26,6.26,0,0,0-.94.74c-.28.28-.54.55-.77.81a9.19,9.19,0,0,0-1,1.42,10.56,10.56,0,0,0-.7,1.58,12,12,0,0,0-.42,1.64,10.28,10.28,0,0,0-.14,1.64,5.75,5.75,0,0,0,1.11,3.82,3.9,3.9,0,0,0,3.14,1.3,6.38,6.38,0,0,0,1.79-.27,10.56,10.56,0,0,0,1.84-.74,14.26,14.26,0,0,0,1.75-1.11,12.27,12.27,0,0,0,1.56-1.39,7.94,7.94,0,0,0,1-1.19,1.87,1.87,0,0,0,.33-1,1.76,1.76,0,0,0-.06-.55.22.22,0,0,0-.21-.17Z"/><path class="cls-4" d="M1741.91,61.46c0,.15-.05.32-.08.49s-.06.36-.1.53-.06.33-.09.46a6.09,6.09,0,0,1-.53,1.41,16.51,16.51,0,0,1-.93,1.57c-.36.54-.75,1-1.16,1.56s-.83,1-1.23,1.34a7.86,7.86,0,0,1-1.12.94,1.6,1.6,0,0,1-.84.36,1,1,0,0,1-.6-.21.71.71,0,0,1-.29-.61,4.81,4.81,0,0,1,.17-1.27,7.76,7.76,0,0,1,.39-1.15c.17-.35.33-.68.51-1s.34-.57.48-.82a19.57,19.57,0,0,1,1.4-2.1,10.18,10.18,0,0,1,1.27-1.41,5.28,5.28,0,0,1,1.15-.82,3.18,3.18,0,0,1,1-.31h0a.4.4,0,0,1,.24.09,2,2,0,0,1,.19.22.86.86,0,0,1,.11.24.93.93,0,0,1,0,.13,2.75,2.75,0,0,1,0,.34Zm23.19,10.42a5.11,5.11,0,0,0,1.49-.79,3.55,3.55,0,0,0,.91-1,2.09,2.09,0,0,0,.31-1l-.13-.53a.38.38,0,0,0-.17.07l-.21.13-.25.19c-.36.26-.67.48-1,.65a5.89,5.89,0,0,1-.83.42,3.46,3.46,0,0,1-.85.24,6.33,6.33,0,0,1-1,.07,2.88,2.88,0,0,1-1.52-.37,2.71,2.71,0,0,1-1-1,5.41,5.41,0,0,1-.55-1.62,11.88,11.88,0,0,1-.16-2.06c0-.06,0-.19,0-.37s0-.37.07-.57,0-.4.08-.57,0-.3,0-.37v-.21a1.7,1.7,0,0,0,0-.22.94.94,0,0,0-.1-.43c-.07-.13-.23-.19-.48-.19a2.88,2.88,0,0,0-1,.18,4.18,4.18,0,0,0-.91.48,5.6,5.6,0,0,0-.82.74,10.87,10.87,0,0,0-.79.94q-.3.39-.81,1l-1.06,1.19c-.37.41-.73.8-1.07,1.19a11.15,11.15,0,0,0-.8,1c0-.35.07-.65.08-.9s0-.52.07-.81.07-.63.14-1,.17-.94.31-1.6c.07-.32.14-.63.2-1s.12-.61.17-.87.09-.47.11-.64,0-.26,0-.26a2.28,2.28,0,0,1,0-.36c0-.12,0-.25,0-.38a1.84,1.84,0,0,0,0-.33.71.71,0,0,0-.14-.29.75.75,0,0,0-.28-.2,1.22,1.22,0,0,0-.46-.08,1.31,1.31,0,0,0-.67.17,1.48,1.48,0,0,0-.46.44,2,2,0,0,0-.28.64,3.08,3.08,0,0,0-.09.75c0,.07,0,.12,0,.19-.77.77-1.53,1.55-2.26,2.33a23.6,23.6,0,0,1-2.4,2.2,8,8,0,0,1-1,.71,1.73,1.73,0,0,1-.88.25.78.78,0,0,1-.63-.36,3.15,3.15,0,0,1-.45-.9,6.65,6.65,0,0,1-.25-1.13,7.1,7.1,0,0,1-.09-1.06,6.79,6.79,0,0,1,.11-1.26,9.39,9.39,0,0,1,.24-1l.24-.76a2,2,0,0,0,.11-.6.44.44,0,0,0-.14-.27c-.09-.09-.19-.19-.31-.29l-.35-.29a.71.71,0,0,1-.22-.26l-.18-.35a1.77,1.77,0,0,0-.21-.32,1,1,0,0,0-.28-.23.74.74,0,0,0-.38-.09,5.93,5.93,0,0,0-2.29.46,6.84,6.84,0,0,0-2.13,1.42,13.39,13.39,0,0,0-1.7,2,19.75,19.75,0,0,0-1.34,2.26l-.17.15-1.11,1a10.55,10.55,0,0,1-1,.83,11.88,11.88,0,0,1-1,.72c-.38.23-.82.47-1.34.72a6.79,6.79,0,0,1-3,.71.66.66,0,0,1-.57-.36,3.4,3.4,0,0,1-.37-.93,12.45,12.45,0,0,1-.23-1.26c-.06-.47-.12-.92-.17-1.36s-.13-1-.2-1.47a8,8,0,0,0-.38-1.39.94.94,0,0,0-.19-.32,1.49,1.49,0,0,0-.28-.23,1.4,1.4,0,0,0-.3-.15.93.93,0,0,0-.24,0,2.72,2.72,0,0,0-1,.23,6.48,6.48,0,0,0-1.08.6,9.42,9.42,0,0,0-1,.8c-.33.29-.63.57-.89.83l-.64.7-.65.75-.6.74-.54.68c-.16.21-.33.43-.5.68s-.32.48-.48.7-.29.43-.41.62a4.81,4.81,0,0,1-.3.43h0s-.09,0-.15-.11a.28.28,0,0,1-.08-.18,9,9,0,0,1,.11-1.24c.08-.49.15-1.05.21-1.69,0-.42.07-.81.1-1.18s.07-.73.11-1.08l.12-1.08c0-.36.07-.75.09-1.16s.06-.77.09-1.24.08-.92.13-1.4.09-.93.15-1.39.11-.86.18-1.21c0-.1,0-.24.09-.42l.15-.58c0-.21.1-.4.14-.59a2.32,2.32,0,0,0,.06-.45,1.12,1.12,0,0,0-.31-.83.94.94,0,0,0-.68-.3.76.76,0,0,0-.35.09,1.32,1.32,0,0,0-.32.2,1.66,1.66,0,0,0-.27.26,1.39,1.39,0,0,0-.17.25c-.11.25-.2.47-.27.67a3.25,3.25,0,0,0-.17.61,6,6,0,0,0-.09.61c0,.21,0,.43,0,.67s0,.48,0,.79,0,.65,0,1a.17.17,0,0,0,0,.07h0l-.7.38c-.26.13-.55.28-.86.42a6.86,6.86,0,0,1-1.12.4c-.43.12-.88.23-1.34.33l-1.38.27-1.25.19-.92.12-.41,0a.34.34,0,0,1-.26-.12.72.72,0,0,1-.08-.4,2.75,2.75,0,0,1,0-.38c0-.14.06-.33.11-.56s.11-.52.19-.87l.3-1.3a3.38,3.38,0,0,0,.08-.37c0-.18.07-.38.11-.6s.08-.46.13-.71.09-.48.12-.7.06-.4.09-.55a2.75,2.75,0,0,0,0-.29.83.83,0,0,0-.08-.27,1.41,1.41,0,0,0-.21-.35,1.57,1.57,0,0,0-.32-.31.65.65,0,0,0-.37-.12.53.53,0,0,0-.27.11,3.05,3.05,0,0,0-.36.29,2.23,2.23,0,0,0-.32.38.74.74,0,0,0-.14.38c0,.12,0,.3,0,.55s-.08.52-.13.83-.11.65-.17,1-.12.68-.18,1-.11.63-.16.89-.1.48-.13.62a5.15,5.15,0,0,1-.53,1.46,1.27,1.27,0,0,1-.57.57l-.45.08-.75.07-.92.07-.94,0-.83,0h-.56a1.19,1.19,0,0,0-.37.06,1,1,0,0,0-.34.17.89.89,0,0,0-.24.3.93.93,0,0,0-.1.45.68.68,0,0,0,.1.32,2,2,0,0,0,.25.36,2,2,0,0,0,.35.3.73.73,0,0,0,.41.13l.34,0,.64,0,.78-.05.8,0,.64,0,.34,0h.28a1.54,1.54,0,0,1,.43.06.48.48,0,0,1,.32.3c-.1.85-.23,1.64-.37,2.35l-.41,2.08c-.13.67-.25,1.33-.34,2a13.21,13.21,0,0,0-.14,2c0,.06,0,.18,0,.35a2.28,2.28,0,0,0,.16.53,1.73,1.73,0,0,0,.32.49.72.72,0,0,0,.53.21.92.92,0,0,0,.27-.1l.38-.24a3.39,3.39,0,0,0,.34-.28.54.54,0,0,0,.16-.22,4.4,4.4,0,0,0,0-.48c0-.15,0-.29,0-.42s0-.28,0-.42,0-.31,0-.49,0-.63,0-.93.06-.59.1-.91.08-.65.14-1,.12-.77.2-1.24c0-.1,0-.27.08-.5s.07-.49.11-.78.09-.59.14-.89.09-.58.15-.83.1-.46.14-.62.1-.25.14-.25c.7,0,1.39-.13,2.09-.24s1.35-.23,2-.38a17.79,17.79,0,0,0,1.82-.5c.58-.19,1.1-.39,1.58-.59a6.24,6.24,0,0,0,.93-.54c.08-.06.14-.12.22-.17s0,.19,0,.27c0,.34,0,.65,0,.94s0,.51,0,.68c0,.54-.08,1.13-.14,1.8s-.12,1.34-.19,2-.14,1.38-.22,2.06-.15,1.3-.21,1.87c0,.29-.08.61-.13,1s-.1.67-.15,1-.1.6-.14.85a4.16,4.16,0,0,0-.06.55.89.89,0,0,0,.11.4,1.39,1.39,0,0,0,.29.35,1.19,1.19,0,0,0,.38.25,1,1,0,0,0,.42.1.86.86,0,0,0,.34-.13,1.42,1.42,0,0,0,.46-.48L1716,72c.36-.66.76-1.31,1.19-2s1-1.5,1.62-2.23,1.14-1.39,1.69-2a14.25,14.25,0,0,1,1.52-1.41,2.13,2.13,0,0,1,1.1-.53c.07,0,.13.06.19.19a2.58,2.58,0,0,1,.14.48,5.59,5.59,0,0,1,.12.66c0,.24.06.47.08.7s.05.44.06.63,0,.33,0,.42c.07.61.16,1.17.27,1.69a5.08,5.08,0,0,0,.51,1.42,2,2,0,0,0,.92.92,3,3,0,0,0,1.35.28,6,6,0,0,0,2-.34,9.9,9.9,0,0,0,1.86-.89,14.56,14.56,0,0,0,1.74-1.24c.34-.29.67-.58,1-.88a7,7,0,0,0-.27,1.81,2.43,2.43,0,0,0,.21,1,2.38,2.38,0,0,0,.56.76,2.33,2.33,0,0,0,.81.47,2.75,2.75,0,0,0,1,.16,1.77,1.77,0,0,0,.68-.24,10.78,10.78,0,0,0,1-.64,13.57,13.57,0,0,0,1.1-.85,12.09,12.09,0,0,0,1-.93c.07-.08.18-.21.31-.38s.29-.37.46-.57l.51-.64c.17-.22.33-.42.48-.59s.28-.33.39-.44.19-.17.22-.17.1,0,.15.15a2.22,2.22,0,0,1,.11.36c0,.15.07.3.1.47s.08.32.12.44a3,3,0,0,0,.33.7,2.85,2.85,0,0,0,.49.59,2.6,2.6,0,0,0,.59.41,1.5,1.5,0,0,0,.64.15,3.8,3.8,0,0,0,1.69-.48,8.93,8.93,0,0,0,1.88-1.33c.6-.54,1.19-1.11,1.78-1.72a19,19,0,0,0,1.66-2l-.06.87a20.89,20.89,0,0,1-.25,2.23c-.1.61-.2,1.15-.28,1.6,0,.17-.06.35-.09.56s-.07.41-.1.62-.05.42-.07.62,0,.38,0,.54a.68.68,0,0,0,.09.33,1.1,1.1,0,0,0,.26.31,1.53,1.53,0,0,0,.4.22,1.65,1.65,0,0,0,.51.08,1.34,1.34,0,0,0,.48-.08.94.94,0,0,0,.35-.29,3.2,3.2,0,0,0,.37-.53l.51-.82c.12-.18.31-.43.56-.76l.87-1.06,1-1.2,1-1.15q.49-.54.9-.93a3.5,3.5,0,0,1,.61-.52,13.88,13.88,0,0,0,.31,3.17,6.27,6.27,0,0,0,.93,2.2,3.79,3.79,0,0,0,1.5,1.27,5,5,0,0,0,2.06.41,6.15,6.15,0,0,0,2-.32Z"/><path class="cls-4" d="M1574.39,87a2.16,2.16,0,0,0-1.78.73,2.8,2.8,0,0,0-.61,1.86v14.74q0,7.5-6.16,7.5t-6.15-7.41V89.57a2.69,2.69,0,0,0-.67-1.86,2.43,2.43,0,0,0-1.89-.73,2.29,2.29,0,0,0-1.82.73,2.72,2.72,0,0,0-.65,1.86v14.62a13.75,13.75,0,0,0,2.62,8.77q2.61,3.33,8.52,3.33a13.24,13.24,0,0,0,5.28-1,7.86,7.86,0,0,0,3.43-2.7,11.82,11.82,0,0,0,1.76-3.83,18.83,18.83,0,0,0,.54-4.69V89.57a2.8,2.8,0,0,0-.62-1.86,2.24,2.24,0,0,0-1.8-.73Z"/><path class="cls-4" d="M1608.1,87c-1.51,0-2.27.86-2.27,2.59V107L1592,88.36a3,3,0,0,0-2.48-1.38q-2.34,0-2.34,2.64v23.7c0,1.7.75,2.55,2.26,2.55s2.3-.85,2.3-2.55V96.07l14,18.55a2.89,2.89,0,0,0,2.26,1.25,2.21,2.21,0,0,0,1.74-.71,2.63,2.63,0,0,0,.65-1.84V89.57c0-1.73-.77-2.59-2.3-2.59Z"/><path class="cls-4" d="M1623.3,87a2.38,2.38,0,0,0-1.87.73,2.72,2.72,0,0,0-.65,1.86v23.75a2.63,2.63,0,0,0,.65,1.84,2.78,2.78,0,0,0,3.71,0,2.56,2.56,0,0,0,.67-1.84V89.57a2.64,2.64,0,0,0-.67-1.86,2.37,2.37,0,0,0-1.84-.73Z"/><path class="cls-4" d="M1657,87.19q-2.38-1-3.48,2.13l-7.16,19.43-7.79-19.64q-1.12-2.83-3.47-1.88a2.08,2.08,0,0,0-1.39,1.61A3.15,3.15,0,0,0,1634,91l9.67,23.45a2.59,2.59,0,0,0,2.43,1.84,2.62,2.62,0,0,0,2.55-1.92l9.26-23.71Q1659,88,1657,87.19Z"/><path class="cls-4" d="M1682.72,111.39h-12.1v-8.12H1680a2.42,2.42,0,0,0,1.77-.63,2.14,2.14,0,0,0,.65-1.63,2.08,2.08,0,0,0-.65-1.64,2.53,2.53,0,0,0-1.77-.58h-9.34V91.46h11.68a2.43,2.43,0,0,0,1.74-.61,2.1,2.1,0,0,0,.65-1.61,2.15,2.15,0,0,0-.65-1.65,2.43,2.43,0,0,0-1.74-.61h-14.15a2.43,2.43,0,0,0-1.89.73,2.64,2.64,0,0,0-.67,1.86v23.71a2.61,2.61,0,0,0,.69,1.86,2.49,2.49,0,0,0,1.91.73h14.53a2.49,2.49,0,0,0,1.74-.6,2.14,2.14,0,0,0,.65-1.62,2.16,2.16,0,0,0-.65-1.65,2.45,2.45,0,0,0-1.74-.61Z"/><path class="cls-4" d="M1705.75,99.48a8,8,0,0,1-4.77,1.15,22.52,22.52,0,0,1-2.85-.17v-9a28.44,28.44,0,0,1,3.18-.25q6,0,6,4.52a4.32,4.32,0,0,1-1.55,3.71Zm1.55,3.91a7.5,7.5,0,0,0,3.85-2.89,8.57,8.57,0,0,0,1.43-5q0-8.72-10.85-8.71a30.22,30.22,0,0,0-6.28.54,2.69,2.69,0,0,0-2.35,2.89v23.12a2.63,2.63,0,0,0,.65,1.84,2.78,2.78,0,0,0,3.71,0,2.56,2.56,0,0,0,.67-1.84v-9.09a17.11,17.11,0,0,0,2.47.17,12.42,12.42,0,0,0,1.8-.09l5.95,9.8q1.59,2.64,3.81,1.39a2.25,2.25,0,0,0,1.09-1.74,3.4,3.4,0,0,0-.63-2.28l-5.32-8.09Z"/><path class="cls-4" d="M1738,100.76c-1.08-.56-2.25-1.09-3.52-1.6s-2.44-.92-3.52-1.25a7.59,7.59,0,0,1-2.7-1.45,2.89,2.89,0,0,1-1.09-2.28q0-3,4.15-3a13.16,13.16,0,0,1,5.15,1.13c2,.89,3.36.74,4-.46q1.08-2.15-1.47-3.52a14.41,14.41,0,0,0-7.29-1.76q-4.68,0-7.14,2.09a7.13,7.13,0,0,0-2.45,5.7,7.48,7.48,0,0,0,1.51,4.81,8.89,8.89,0,0,0,3.67,2.75q2.15.86,4.29,1.53a12.57,12.57,0,0,1,3.64,1.75,3.36,3.36,0,0,1,1.51,2.85,3.06,3.06,0,0,1-1.36,2.72,6.49,6.49,0,0,1-3.71.93,15.11,15.11,0,0,1-6.28-1.55q-2.76-1.14-3.6.5a2.25,2.25,0,0,0-.1,2.13,4,4,0,0,0,1.9,1.8,17.18,17.18,0,0,0,8,1.72q5.15,0,7.7-2.41a8.44,8.44,0,0,0,2.56-6.47,7.53,7.53,0,0,0-1.09-4.1,7.06,7.06,0,0,0-2.7-2.55Z"/><path class="cls-4" d="M1752.36,87a2.34,2.34,0,0,0-1.86.73,2.67,2.67,0,0,0-.65,1.86v23.75a2.59,2.59,0,0,0,.65,1.84,2.77,2.77,0,0,0,3.7,0,2.56,2.56,0,0,0,.67-1.84V89.57a2.64,2.64,0,0,0-.67-1.86,2.35,2.35,0,0,0-1.84-.73Z"/><path class="cls-4" d="M1784.48,87h-19.85a2.49,2.49,0,0,0-1.74.58,2.12,2.12,0,0,0-.65,1.64,2.18,2.18,0,0,0,.65,1.63,2.38,2.38,0,0,0,1.74.63H1772v21.86a2.63,2.63,0,0,0,.65,1.84,2.8,2.8,0,0,0,3.73,0,2.63,2.63,0,0,0,.65-1.84V91.46h7.41a2.45,2.45,0,0,0,1.78-.63,2.18,2.18,0,0,0,.65-1.63,2.12,2.12,0,0,0-.65-1.64,2.56,2.56,0,0,0-1.78-.58Z"/><path class="cls-4" d="M1815.68,87.4a2.39,2.39,0,0,0-2.14-.21A4,4,0,0,0,1812,88.7l-6.53,10.13-6.75-10.13a4,4,0,0,0-1.71-1.6,2.45,2.45,0,0,0-2.22.3c-1.34.95-1.43,2.33-.25,4.14l8.25,11.81v9.93a2.61,2.61,0,0,0,.65,1.84,2.77,2.77,0,0,0,3.7,0,2.57,2.57,0,0,0,.67-1.84V103.14L1815.89,91a3.75,3.75,0,0,0,.69-1.93,2.11,2.11,0,0,0-.9-1.67Z"/><path class="cls-4" d="M1783.14,63.71a9,9,0,0,1-.44,1.18c-.19.4-.39.79-.61,1.17s-.44.74-.66,1.06a8.29,8.29,0,0,1-.77,1q-.47.49-1,.93a7.39,7.39,0,0,1-.92.71,1.32,1.32,0,0,1-.65.28,1,1,0,0,1-.89-.37,1.91,1.91,0,0,1-.23-1,3.89,3.89,0,0,1,.14-.94,10.64,10.64,0,0,1,.39-1.11c.16-.39.34-.78.55-1.19s.43-.81.66-1.2.46-.77.69-1.13.45-.67.66-1a2.7,2.7,0,0,1,.4-.45,3.87,3.87,0,0,1,.55-.43,2.56,2.56,0,0,1,.64-.32,1.71,1.71,0,0,1,.65-.13.85.85,0,0,1,.68.43,2.65,2.65,0,0,1,.29,1.41,4,4,0,0,1-.17,1.08Zm7,4.29q-.11,0-.21.15l-.25.32a3.45,3.45,0,0,1-1.13,1,3.36,3.36,0,0,1-1.62.34,1.68,1.68,0,0,1-.79-.2,1.62,1.62,0,0,1-.65-.71,5.06,5.06,0,0,1-.43-1.4,14.11,14.11,0,0,1-.15-2.28,7.5,7.5,0,0,1,.09-1.1c.06-.4.13-.78.2-1.15s.14-.7.2-1,.07-.32.08-.42h0a.45.45,0,0,0,0-.1v0a2.62,2.62,0,0,0-1.35-2.28,2.84,2.84,0,0,0-2.57,0,2.81,2.81,0,0,0-.83.36c-.16.09-.33.22-.5.34l-.16.11,0,0h0q-.35.27-.72.6a15.22,15.22,0,0,0-1.46,1.59,12.66,12.66,0,0,0-1.24,1.93q-.46.9-.78,1.65c-.22.51-.39,1-.53,1.41a7.87,7.87,0,0,0-.28,1.2,6.81,6.81,0,0,0-.09,1.07,2.87,2.87,0,0,0,.17,1,2.93,2.93,0,0,0,.46.81,2.57,2.57,0,0,0,.68.56,1.69,1.69,0,0,0,.81.21,3.27,3.27,0,0,0,1.44-.42,10.36,10.36,0,0,0,1.65-1.06,15,15,0,0,0,1.63-1.49,13.45,13.45,0,0,0,1.37-1.65,12.57,12.57,0,0,0,.43,1.71,5.77,5.77,0,0,0,.68,1.41,3.19,3.19,0,0,0,1,1,2.47,2.47,0,0,0,1.35.35,3.07,3.07,0,0,0,1.16-.22,5,5,0,0,0,1-.57,5.71,5.71,0,0,0,.86-.77,5.36,5.36,0,0,0,.62-.82,2.53,2.53,0,0,0,.27-.55,1.71,1.71,0,0,0,.08-.47.4.4,0,0,0-.15-.3.46.46,0,0,0-.33-.15Z"/><rect class="cls-5" y="71" width="1431" height="14"/></svg>