<svg id="Layer_1" data-name="Layer 1" xmlns="http://www.w3.org/2000/svg" viewBox="0 0 1920 1080"><defs><style>.cls-1{fill:#2151a2;}.cls-2{fill:#fff;stroke:#2151a2;stroke-miterlimit:10;stroke-width:2px;}.cls-3{fill:none;stroke:#fff;stroke-miterlimit:22.93;stroke-width:0.91px;}.cls-4{fill:#2551a3;}.cls-4,.cls-5{fill-rule:evenodd;}.cls-5{fill:#ed1846;}</style></defs><title>title_16_9</title><path class="cls-1" d="M1465.23,202.21v28.86h-3.46V202.21Z"/><path class="cls-1" d="M1497.47,202.21v3.3h-10.14v25.56h-3.46V205.51h-10.15v-3.3Z"/><path class="cls-1" d="M1535.73,202.21v28.86h-3.46v-22.3l-10.35,15.5h-2.14l-10.35-15.5v22.3H1506V202.21h3L1520.85,220l11.92-17.81Z"/><path class="cls-1" d="M1560.59,201.72c10.1,0,15.1,7.46,15.1,14.92s-5,14.93-15.1,14.93-15.09-7.46-15.09-14.93S1550.49,201.72,1560.59,201.72Zm0,3.29c-7.83,0-11.58,5.69-11.58,11.63s3.75,11.63,11.58,11.63,11.59-5.69,11.59-11.63S1568.43,205,1560.59,205Z"/><path class="cls-1" d="M1623.63,202.21v18.31c0,8.25-5.65,11-12,11s-12.08-2.8-12.08-11V202.21H1603v18.14c0,5.86,3.63,7.92,8.62,7.92s8.58-2.06,8.58-7.92V202.21Z"/><path class="cls-1" d="M1635,231.07V202.21h3.21l17.37,23v-23h3.46v28.86h-3.22L1638.47,208v23.09Z"/><path class="cls-1" d="M1674.22,202.21v28.86h-3.46V202.21Z"/><path class="cls-1" d="M1694.55,231.07l-12-28.86h3.71l10,25,10.06-25h3.71l-12,28.86Z"/><path class="cls-1" d="M1737.92,202.21v3.3h-16v9.36h14.76v3.3h-14.76v9.61h16.25v3.29h-19.71V202.21Z"/><path class="cls-1" d="M1748.14,231.07V202.21h11.3c5.2,0,10.8,2.14,10.8,8.74,0,5.32-3.62,7.71-7.71,8.46l9.78,11.66H1768l-9.45-11.38h-6.92v11.38Zm3.47-14.68h8c3.46,0,7.13-1.15,7.13-5.44s-3.67-5.44-7.13-5.44h-8Z"/><path class="cls-1" d="M1789.08,201.72a18.4,18.4,0,0,1,8.75,2.1v3.46a16,16,0,0,0-8.5-2.27c-3.79,0-6.64,1.12-6.64,4.21,0,7.3,17.2,4.17,17.2,14.52,0,5.73-5.16,7.87-10.68,7.83a20.12,20.12,0,0,1-9.9-2.48v-3.46a18.28,18.28,0,0,0,9.65,2.64c4,0,7.42-1,7.42-4.29,0-7.75-17.19-4.49-17.19-14.64C1779.19,204.19,1783.85,201.72,1789.08,201.72Z"/><path class="cls-1" d="M1812.62,202.21v28.86h-3.46V202.21Z"/><path class="cls-1" d="M1844.87,202.21v3.3h-10.15v25.56h-3.46V205.51h-10.14v-3.3Z"/><path class="cls-1" d="M1861.36,231.07V220.15L1850,202.21h3.83l9.24,14.84,9.24-14.84h3.83l-11.34,17.94v10.92Z"/><path class="cls-1" d="M1607.68,86.45v17.31h-27.56V176.2H1561V103.76h-27.56V86.45Z"/><path class="cls-2" d="M1686.6,86.45v72.44h44V176.2h-63.21V86.45Z"/><path class="cls-2" d="M1799.18,164.4a10.72,10.72,0,0,0,3.33-.51v11.67a30.18,30.18,0,0,1-9.87,1.79c-6.29,0-11-2.31-13.59-6.92a34.38,34.38,0,0,1-22.18,7.56c-11.54,0-21.54-6.66-21.54-18.85,0-15.64,14.74-20.51,27.05-20.51A66.77,66.77,0,0,1,1777,140.3v-2.18c0-6.15-4.87-10.39-14.48-10.39a59,59,0,0,0-21.8,4.62V117a80.57,80.57,0,0,1,23.85-4.1c18.46,0,30.26,7.57,30.26,27.82V160.3C1794.82,163.5,1796.87,164.4,1799.18,164.4Zm-45.65-6.67c0,4.62,4.23,7.57,9.62,7.57a20.29,20.29,0,0,0,13.84-5v-9.62a48.53,48.53,0,0,0-10.51-1.41C1759.94,149.27,1753.53,151.45,1753.53,157.73Z"/><path class="cls-2" d="M1828.79,86.45v34.74c3.85-4.35,10.52-8.33,20.26-8.33,19.49,0,30,15.77,30,32.57s-10.51,32.56-30,32.56c-11.41,0-18.46-5.25-22.31-10.77v9H1811V86.45Zm15.9,41.41a17.54,17.54,0,0,0-16,10.26v14.61a17.54,17.54,0,0,0,16,10.26c10.13,0,16.16-8,16.16-17.56S1854.82,127.86,1844.69,127.86Z"/><path class="cls-1" d="M1512.66,86.43h12.93v17.43h-22.83q-12.33,0-18.93,5.42a22,22,0,0,0-3.45,2.83,22.86,22.86,0,0,0-3.08,3.89,28.39,28.39,0,0,0-4.8,15.57q0,7.91,5.54,16.12,4.43,6.54,14.26,9.84a35,35,0,0,0,10.46,1.18h22.83v17l-2,.37h-19a80.71,80.71,0,0,1-13.57-1,38.2,38.2,0,0,1-9.59-2.81,49,49,0,0,1-14-9.43,44.39,44.39,0,0,1-13-31.47,45.64,45.64,0,0,1,2.47-15.13,42.46,42.46,0,0,1,7.65-13.32,48.8,48.8,0,0,1,5.53-5.7,36.63,36.63,0,0,1,5.27-3.83A61.37,61.37,0,0,1,1484,89a23.1,23.1,0,0,1,7.85-1.77,26.65,26.65,0,0,1,6.47-.65Q1503.52,86.43,1512.66,86.43Z"/><polygon class="cls-3" points="-52.68 -146.97 507.49 -146.97 507.49 413.2 -52.68 413.2 -52.68 -146.97 -52.68 -146.97"/><path class="cls-4" d="M140.59,102a6.17,6.17,0,1,1-6.17-6.17,6.17,6.17,0,0,1,6.17,6.17Zm279.26,101a2.7,2.7,0,0,0-2.45-.23,4.56,4.56,0,0,0-1.79,1.68L408.75,215l-7.09-10.66a4.53,4.53,0,0,0-1.93-1.77,2.77,2.77,0,0,0-2.56.33c-1.53,1.08-1.64,2.66-.32,4.71l8.83,12.64v10.61a3,3,0,0,0,.75,2.1,3.14,3.14,0,0,0,4.25,0,3,3,0,0,0,.77-2.1V220l8.7-13a4,4,0,0,0,.77-2.17,2.41,2.41,0,0,0-1.07-2Zm-31.08-.48H367.44a2.88,2.88,0,0,0-2,.68,2.45,2.45,0,0,0-.76,1.89,2.55,2.55,0,0,0,.75,1.89,2.81,2.81,0,0,0,2,.73h7.78v23.3A3,3,0,0,0,376,233a3.19,3.19,0,0,0,4.27,0,3,3,0,0,0,.75-2.11v-23.3h7.78a2.83,2.83,0,0,0,2-.73,2.52,2.52,0,0,0,.75-1.89,2.41,2.41,0,0,0-.76-1.89,2.91,2.91,0,0,0-2-.68Zm-32,0a2.73,2.73,0,0,0-2.14.85,3.1,3.1,0,0,0-.75,2.13v25.51a3,3,0,0,0,.74,2.11,3.16,3.16,0,0,0,4.25,0,3,3,0,0,0,.77-2.11V205.41a3,3,0,0,0-.77-2.13,2.73,2.73,0,0,0-2.11-.85ZM344,217.26c-1.16-.6-2.44-1.18-3.8-1.72s-2.63-1-3.79-1.35a7.75,7.75,0,0,1-2.83-1.52,2.91,2.91,0,0,1-1.11-2.31c0-2.06,1.4-3.06,4.27-3.06a14.2,14.2,0,0,1,5.46,1.2c2.29,1,3.81.8,4.51-.58.83-1.63.28-3-1.65-4a15.67,15.67,0,0,0-7.92-1.92c-3.38,0-6,.78-7.79,2.3a7.83,7.83,0,0,0-2.7,6.26,8.32,8.32,0,0,0,1.67,5.29,9.58,9.58,0,0,0,4,3c1.55.62,3.11,1.17,4.62,1.65a13.52,13.52,0,0,1,3.87,1.86,3.4,3.4,0,0,1,1.54,2.91A3.08,3.08,0,0,1,341,228a6.85,6.85,0,0,1-3.88,1,16,16,0,0,1-6.68-1.65c-2.08-.85-3.46-.62-4.1.62a2.63,2.63,0,0,0-.12,2.46,4.58,4.58,0,0,0,2.13,2,18.9,18.9,0,0,0,8.63,1.86c3.72,0,6.55-.89,8.41-2.64a9.29,9.29,0,0,0,2.8-7.08,8.23,8.23,0,0,0-1.2-4.51,7.73,7.73,0,0,0-3-2.81Zm-40.24-9.62a31.61,31.61,0,0,1,3.24-.25c4.2,0,6.25,1.53,6.25,4.68a4.48,4.48,0,0,1-1.59,3.83,8.48,8.48,0,0,1-5,1.2,25.6,25.6,0,0,1-2.88-.15v-9.31Zm9.95,12.71a8.28,8.28,0,0,0,4-3.09,9.47,9.47,0,0,0,1.57-5.51c0-6.33-4-9.54-11.84-9.54a32.58,32.58,0,0,0-6.79.59,3.05,3.05,0,0,0-2.67,3.28v24.84a3,3,0,0,0,.75,2.11,3.16,3.16,0,0,0,4.25,0,3,3,0,0,0,.77-2.11v-9.55a19.06,19.06,0,0,0,2.47.15,16.66,16.66,0,0,0,1.84-.07l6.33,10.42c.8,1.33,1.74,2,2.78,2a3.19,3.19,0,0,0,1.57-.46,2.57,2.57,0,0,0,1.25-2,3.8,3.8,0,0,0-.7-2.57l-5.59-8.49Zm-24.17,8.32H276.69v-8.36h9.85a2.84,2.84,0,0,0,2-.73,2.52,2.52,0,0,0,.75-1.89,2.44,2.44,0,0,0-.75-1.89,3,3,0,0,0-2-.68h-9.85v-7.5h12.37a2.82,2.82,0,0,0,2-.7,2.46,2.46,0,0,0,.76-1.87,2.51,2.51,0,0,0-.76-1.91,2.8,2.8,0,0,0-2-.71H273.85a2.79,2.79,0,0,0-2.16.85,3,3,0,0,0-.77,2.13v25.47a3,3,0,0,0,.79,2.13,2.92,2.92,0,0,0,2.19.84h15.61a2.84,2.84,0,0,0,2-.7,2.46,2.46,0,0,0,.76-1.87,2.51,2.51,0,0,0-.76-1.91,2.8,2.8,0,0,0-2-.7Zm-25-26c-1.81-.73-3.17.1-4,2.4L253,225.5l-8.2-20.65c-.84-2.13-2.21-2.85-4-2.13a2.38,2.38,0,0,0-1.6,1.86,3.55,3.55,0,0,0,.27,2.43l10.4,25.2a3,3,0,0,0,5.69-.1l9.95-25.46a3.72,3.72,0,0,0,.25-2.79,2.23,2.23,0,0,0-1.3-1.19Zm-33.77-.24a2.73,2.73,0,0,0-2.14.85,3.14,3.14,0,0,0-.74,2.13v25.51a3.07,3.07,0,0,0,.74,2.11,3.16,3.16,0,0,0,4.25,0,2.94,2.94,0,0,0,.77-2.11V205.41a3,3,0,0,0-.76-2.13,2.76,2.76,0,0,0-2.12-.85Zm-13.81,0c-1.74,0-2.62,1-2.62,3v18.12L199.76,204a3.39,3.39,0,0,0-2.81-1.57c-1.79,0-2.7,1-2.7,3v25.47c0,1.94.88,2.93,2.61,2.93s2.66-1,2.66-2.93v-18l14.7,19.5a3.3,3.3,0,0,0,2.58,1.42,2.61,2.61,0,0,0,2-.82,3,3,0,0,0,.75-2.11V205.41c0-2-.9-3-2.66-3Zm-33.7,0a2.52,2.52,0,0,0-2.06.86,3.24,3.24,0,0,0-.69,2.12v15.84c0,5.29-2.11,7.87-6.43,7.87s-6.43-2.55-6.43-7.78V205.41a3,3,0,0,0-.77-2.13,2.81,2.81,0,0,0-2.16-.85,2.69,2.69,0,0,0-2.1.85,3.14,3.14,0,0,0-.74,2.13v15.7a15.07,15.07,0,0,0,2.85,9.54c1.9,2.42,5,3.65,9.3,3.65a14.32,14.32,0,0,0,5.74-1.05,8.69,8.69,0,0,0,3.77-3,13.15,13.15,0,0,0,1.92-4.18A20.45,20.45,0,0,0,186,221V205.41a3.15,3.15,0,0,0-.72-2.12,2.59,2.59,0,0,0-2.07-.86ZM134,226.06a8.66,8.66,0,0,1-13.21,0,14.63,14.63,0,0,1,0-15.84,8.68,8.68,0,0,1,13.21,0,14.68,14.68,0,0,1,0,15.84ZM127.39,202c-4.74,0-8.46,1.54-11,4.57a19.26,19.26,0,0,0,0,23.21c2.59,3,6.31,4.54,11,4.54s8.47-1.53,11.07-4.54a19.14,19.14,0,0,0,0-23.21c-2.6-3-6.32-4.57-11.07-4.57Zm-24.48.45a3.32,3.32,0,0,0-2.81,1.8l-8.84,14.29-9-14.24a3.42,3.42,0,0,0-2.95-1.85,2.66,2.66,0,0,0-2,.76,3.07,3.07,0,0,0-.75,2.26v25.47c0,1.94.91,2.93,2.7,2.93s2.71-1,2.71-2.93V213.46l6.31,9.91A3.12,3.12,0,0,0,91,225a3.06,3.06,0,0,0,2.63-1.7l6.23-10.07v17.66a3,3,0,0,0,.77,2.11,3.16,3.16,0,0,0,4.25,0,3,3,0,0,0,.75-2.11V205.41a3.25,3.25,0,0,0-.7-2.15,2.53,2.53,0,0,0-2-.83Zm-34.15,0H47.43a2.88,2.88,0,0,0-2,.68,2.44,2.44,0,0,0-.75,1.89,2.52,2.52,0,0,0,.75,1.89,2.77,2.77,0,0,0,2,.73h7.78v23.3A3.07,3.07,0,0,0,56,233a3.2,3.2,0,0,0,4.28,0,3.07,3.07,0,0,0,.74-2.11v-23.3h7.78a2.83,2.83,0,0,0,2-.73,2.52,2.52,0,0,0,.76-1.89,2.45,2.45,0,0,0-.76-1.89,2.94,2.94,0,0,0-2-.68Zm-32,0a2.73,2.73,0,0,0-2.14.85,3.14,3.14,0,0,0-.74,2.13v25.51a3.07,3.07,0,0,0,.74,2.11,3.16,3.16,0,0,0,4.25,0,3,3,0,0,0,.77-2.11V205.41a3.09,3.09,0,0,0-.76-2.13,2.76,2.76,0,0,0-2.12-.85ZM350.56,48.82a3.61,3.61,0,1,1-3.6-3.6,3.6,3.6,0,0,1,3.6,3.6ZM324,35.54a3.61,3.61,0,1,1-3.61-3.61A3.61,3.61,0,0,1,324,35.54ZM244.29,48.82a3.61,3.61,0,1,1-3.6-3.6,3.6,3.6,0,0,1,3.6,3.6Zm82.27,39.85a6.17,6.17,0,1,1-6.17-6.17,6.18,6.18,0,0,1,6.17,6.17ZM324,115.24a3.61,3.61,0,1,1-3.61-3.61,3.61,3.61,0,0,1,3.61,3.61ZM303.08,75.39a9.26,9.26,0,1,1-9.26-9.26,9.27,9.27,0,0,1,9.26,9.26Zm26.57-13.28a9.26,9.26,0,1,1-9.26-9.26,9.26,9.26,0,0,1,9.26,9.26Zm-32.22,66.42a3.61,3.61,0,1,1-3.61-3.61,3.6,3.6,0,0,1,3.61,3.61Zm53.14-53.14A3.61,3.61,0,1,1,347,71.78a3.61,3.61,0,0,1,3.61,3.61ZM191.16,48.82a3.61,3.61,0,1,1-3.61-3.6,3.61,3.61,0,0,1,3.61,3.6Zm-53.13,0a3.61,3.61,0,1,1-3.61-3.6,3.61,3.61,0,0,1,3.61,3.6Zm79.51,93a3.61,3.61,0,1,1-3.61-3.61,3.61,3.61,0,0,1,3.61,3.61ZM164.59,35.54a3.61,3.61,0,1,1-3.6-3.61,3.61,3.61,0,0,1,3.6,3.61Zm0,79.51a3.61,3.61,0,1,1-3.6-3.6,3.6,3.6,0,0,1,3.6,3.6ZM111.46,88.67a3.61,3.61,0,1,1-3.61-3.6,3.61,3.61,0,0,1,3.61,3.6Zm0,26.57a3.61,3.61,0,1,1-3.61-3.61,3.61,3.61,0,0,1,3.61,3.61Zm58.78-26.57A9.26,9.26,0,1,1,161,79.42a9.25,9.25,0,0,1,9.25,9.25Zm23.48,39.86a6.17,6.17,0,1,1-6.17-6.18,6.17,6.17,0,0,1,6.17,6.18Zm26.57-66.42a6.17,6.17,0,1,1-6.17-6.17,6.17,6.17,0,0,1,6.17,6.17ZM300,102a6.18,6.18,0,1,1-6.18-6.17A6.18,6.18,0,0,1,300,102Zm0-53.14a6.17,6.17,0,1,1-6.17-6.17A6.17,6.17,0,0,1,300,48.82ZM276.51,62.11a9.26,9.26,0,1,1-9.26-9.26,9.25,9.25,0,0,1,9.26,9.26Zm-56.22,53.13a6.17,6.17,0,1,1-6.17-6.17,6.17,6.17,0,0,1,6.17,6.17Zm29.65-39.85a9.26,9.26,0,1,1-9.26-9.26,9.26,9.26,0,0,1,9.26,9.26Zm26.57,13.28a9.26,9.26,0,1,1-9.25-9.25,9.25,9.25,0,0,1,9.25,9.25Zm-3.08,26.57a6.18,6.18,0,1,1-6.17-6.17,6.17,6.17,0,0,1,6.17,6.17Zm-26.57,13.29a6.17,6.17,0,1,1-6.17-6.18,6.18,6.18,0,0,1,6.17,6.18ZM249.94,102a9.26,9.26,0,1,1-9.26-9.26,9.26,9.26,0,0,1,9.26,9.26Zm-53.13,0a9.26,9.26,0,1,1-9.26-9.26,9.26,9.26,0,0,1,9.26,9.26Zm26.57-13.29a9.26,9.26,0,1,1-9.26-9.25,9.26,9.26,0,0,1,9.26,9.25ZM196.81,75.39a9.26,9.26,0,1,1-9.26-9.26,9.26,9.26,0,0,1,9.26,9.26ZM170.24,62.11A9.26,9.26,0,1,1,161,52.85a9.25,9.25,0,0,1,9.25,9.26Z"/><path class="cls-5" d="M143.68,75.39a9.26,9.26,0,1,1-9.26-9.26,9.27,9.27,0,0,1,9.26,9.26Z"/></svg>